<?xml version="1.0" encoding="UTF-8" standalone="no"?>
<!-- Created with Inkscape (http://www.inkscape.org/) -->

<svg
   xmlns:osb="http://www.openswatchbook.org/uri/2009/osb"
   xmlns:dc="http://purl.org/dc/elements/1.1/"
   xmlns:cc="http://creativecommons.org/ns#"
   xmlns:rdf="http://www.w3.org/1999/02/22-rdf-syntax-ns#"
   xmlns:svg="http://www.w3.org/2000/svg"
   xmlns="http://www.w3.org/2000/svg"
   xmlns:xlink="http://www.w3.org/1999/xlink"
   xmlns:sodipodi="http://sodipodi.sourceforge.net/DTD/sodipodi-0.dtd"
   xmlns:inkscape="http://www.inkscape.org/namespaces/inkscape"
   id="svg2985"
   version="1.1"
   inkscape:version="0.48.4 r9939"
   width="990"
   height="765"
   sodipodi:docname="jsgit.svg"
   inkscape:export-filename="/home/tim/Documents/jsgit.png"
   inkscape:export-xdpi="90.002739"
   inkscape:export-ydpi="90.002739">
  <metadata
     id="metadata2991">
    <rdf:RDF>
      <cc:Work
         rdf:about="">
        <dc:format>image/svg+xml</dc:format>
        <dc:type
           rdf:resource="http://purl.org/dc/dcmitype/StillImage" />
        <dc:title></dc:title>
      </cc:Work>
    </rdf:RDF>
  </metadata>
  <defs
     id="defs2989">
    <clipPath
       id="clipPath3152"
       clipPathUnits="userSpaceOnUse">
      <path
         id="path3154"
         d="M 0,0 219,0 219,92 0,92 0,0 z"
         inkscape:connector-curvature="0" />
    </clipPath>
    <clipPath
       id="clipPath3146"
       clipPathUnits="userSpaceOnUse">
      <path
         id="path3148"
         d="m 0.06,91.21 218.313,0 0,-91.21 -218.313,0 0,91.21 z"
         inkscape:connector-curvature="0" />
    </clipPath>
    <clipPath
       id="clipPath3134"
       clipPathUnits="userSpaceOnUse">
      <path
         id="path3136"
         d="M 0,0 219,0 219,92 0,92 0,0 z"
         inkscape:connector-curvature="0" />
    </clipPath>
    <clipPath
       id="clipPath3247"
       clipPathUnits="userSpaceOnUse">
      <path
         id="path3249"
         d="M 0,0 219,0 219,92 0,92 0,0 z"
         inkscape:connector-curvature="0" />
    </clipPath>
    <clipPath
       id="clipPath3241"
       clipPathUnits="userSpaceOnUse">
      <path
         id="path3243"
         d="m 0.06,91.21 218.313,0 0,-91.21 -218.313,0 0,91.21 z"
         inkscape:connector-curvature="0" />
    </clipPath>
    <clipPath
       id="clipPath3229"
       clipPathUnits="userSpaceOnUse">
      <path
         id="path3231"
         d="M 0,0 219,0 219,92 0,92 0,0 z"
         inkscape:connector-curvature="0" />
    </clipPath>
    <clipPath
       id="clipPath6419"
       clipPathUnits="userSpaceOnUse">
      <path
         id="path6421"
         d="M 0,0 219,0 219,92 0,92 0,0 z"
         inkscape:connector-curvature="0" />
    </clipPath>
    <clipPath
       id="clipPath6413"
       clipPathUnits="userSpaceOnUse">
      <path
         id="path6415"
         d="m 0.06,91.21 218.313,0 0,-91.21 -218.313,0 0,91.21 z"
         inkscape:connector-curvature="0" />
    </clipPath>
    <clipPath
       id="clipPath6401"
       clipPathUnits="userSpaceOnUse">
      <path
         id="path6403"
         d="M 0,0 219,0 219,92 0,92 0,0 z"
         inkscape:connector-curvature="0" />
    </clipPath>
    <radialGradient
       gradientUnits="userSpaceOnUse"
       gradientTransform="matrix(0.83481762,0,0,0.84151077,61.342025,-14.989313)"
       r="260.68124"
       fy="386.19345"
       fx="371.35938"
       cy="386.19345"
       cx="371.35938"
       id="radialGradient5399"
       xlink:href="#linearGradient4970"
       inkscape:collect="always" />
    <filter
       color-interpolation-filters="sRGB"
       inkscape:label="Drop Shadow"
       id="filter5231">
      <feFlood
         result="flood"
         flood-color="rgb(0,0,0)"
         flood-opacity="0.274"
         id="feFlood5233" />
      <feComposite
         result="composite1"
         operator="in"
         in="flood"
         in2="SourceGraphic"
         id="feComposite5235" />
      <feGaussianBlur
         result="blur"
         stdDeviation="2"
         id="feGaussianBlur5237" />
      <feOffset
         result="offset"
         dy="2"
         dx="2"
         id="feOffset5239" />
      <feComposite
         result="composite2"
         operator="over"
         in="SourceGraphic"
         in2="offset"
         id="feComposite5241" />
    </filter>
    <filter
       id="filter5109"
       inkscape:label="Inner Glow"
       inkscape:menu="Shadows and Glows"
       inkscape:menu-tooltip="Adds a colorizable glow inside"
       color-interpolation-filters="sRGB">
      <feGaussianBlur
         id="feGaussianBlur5111"
         stdDeviation="5.0599999999999996"
         result="result8" />
      <feComposite
         id="feComposite5113"
         in2="result8"
         result="result6"
         in="SourceGraphic"
         operator="in" />
      <feComposite
         id="feComposite5115"
         in2="result6"
         operator="in"
         result="result11" />
      <feFlood
         id="feFlood5117"
         result="result10"
         in="result11"
         flood-opacity="1"
         flood-color="rgb(32,74,135)" />
      <feBlend
         id="feBlend5119"
         in2="result10"
         mode="normal"
         in="result11"
         result="result12" />
      <feComposite
         id="feComposite5121"
         in2="SourceGraphic"
         result="result2"
         operator="in"
         in="result12" />
    </filter>
    <filter
       color-interpolation-filters="sRGB"
       inkscape:label="filter2"
       id="filter5091" />
    <filter
       color-interpolation-filters="sRGB"
       inkscape:menu-tooltip="Adds a colorizable glow inside"
       inkscape:menu="Shadows and Glows"
       inkscape:label="Inner Glow"
       id="filter4986">
      <feGaussianBlur
         result="result8"
         stdDeviation="5.0599999999999996"
         id="feGaussianBlur4988" />
      <feComposite
         operator="in"
         in="SourceGraphic"
         result="result6"
         in2="result8"
         id="feComposite4990" />
      <feComposite
         result="result11"
         operator="in"
         in2="result6"
         id="feComposite4992" />
      <feFlood
         flood-color="rgb(254,142,84)"
         flood-opacity="1"
         in="result11"
         result="result10"
         id="feFlood4994" />
      <feBlend
         result="result12"
         in="result11"
         mode="normal"
         in2="result10"
         id="feBlend4996" />
      <feComposite
         in="result12"
         operator="in"
         result="result2"
         in2="SourceGraphic"
         id="feComposite4998" />
    </filter>
    <radialGradient
       gradientUnits="userSpaceOnUse"
       gradientTransform="matrix(1.1710005,0,0,1.1908395,-64.296185,-140.82601)"
       r="176.84615"
       fy="376.36322"
       fx="376"
       cy="376.36322"
       cx="376"
       id="radialGradient4984"
       xlink:href="#linearGradient4978"
       inkscape:collect="always" />
    <radialGradient
       gradientUnits="userSpaceOnUse"
       gradientTransform="matrix(0.81371066,-0.81371066,0.77294664,0.77294666,-389.80408,150.93907)"
       r="187.6875"
       fy="593.80743"
       fx="371.34375"
       cy="593.80743"
       cx="371.34375"
       id="radialGradient4966"
       xlink:href="#linearGradient4944"
       inkscape:collect="always" />
    <linearGradient
       osb:paint="gradient"
       id="linearGradient4928">
      <stop
         id="stop4930"
         offset="0"
         style="stop-color:#000000;stop-opacity:1;" />
      <stop
         id="stop4932"
         offset="1"
         style="stop-color:#000000;stop-opacity:0;" />
    </linearGradient>
    <linearGradient
       id="linearGradient4944">
      <stop
         id="stop4946"
         offset="0"
         style="stop-color:#004bb0;stop-opacity:1;" />
      <stop
         style="stop-color:#99cbff;stop-opacity:1;"
         offset="0.63013697"
         id="stop4968" />
      <stop
         id="stop4948"
         offset="1"
         style="stop-color:#004681;stop-opacity:1;" />
    </linearGradient>
    <linearGradient
       id="linearGradient4970">
      <stop
         id="stop5093"
         offset="0"
         style="stop-color:#003a81;stop-opacity:1;" />
      <stop
         style="stop-color:#005ed3;stop-opacity:1;"
         offset="0.25"
         id="stop5403" />
      <stop
         style="stop-color:#698fbe;stop-opacity:1;"
         offset="0.5"
         id="stop5401" />
      <stop
         id="stop5405"
         offset="0.75"
         style="stop-color:#7bb6ff;stop-opacity:1;" />
      <stop
         id="stop4974"
         offset="1"
         style="stop-color:#d0e5ff;stop-opacity:1;" />
    </linearGradient>
    <linearGradient
       id="linearGradient4978">
      <stop
         id="stop4980"
         offset="0"
         style="stop-color:#ee6602;stop-opacity:1;" />
      <stop
         style="stop-color:#f2d117;stop-opacity:1;"
         offset="0.22087531"
         id="stop5051" />
      <stop
         style="stop-color:#ffe21b;stop-opacity:1;"
         offset="0.330569"
         id="stop5049" />
      <stop
         id="stop5053"
         offset="0.51726401"
         style="stop-color:#ffff00;stop-opacity:1;" />
      <stop
         id="stop4982"
         offset="1"
         style="stop-color:#ff6d17;stop-opacity:1;" />
    </linearGradient>
    <radialGradient
       inkscape:collect="always"
       xlink:href="#linearGradient4970"
       id="radialGradient3390"
       gradientUnits="userSpaceOnUse"
       gradientTransform="matrix(0.83481762,0,0,0.84151077,61.342025,-14.989313)"
       cx="371.35938"
       cy="386.19345"
       fx="371.35938"
       fy="386.19345"
       r="260.68124" />
    <radialGradient
       inkscape:collect="always"
       xlink:href="#linearGradient4944"
       id="radialGradient3392"
       gradientUnits="userSpaceOnUse"
       gradientTransform="matrix(0.81371066,-0.81371066,0.77294664,0.77294666,-389.80408,150.93907)"
       cx="371.34375"
       cy="593.80743"
       fx="371.34375"
       fy="593.80743"
       r="187.6875" />
    <radialGradient
       inkscape:collect="always"
       xlink:href="#linearGradient4978"
       id="radialGradient3394"
       gradientUnits="userSpaceOnUse"
       gradientTransform="matrix(1.1710005,0,0,1.1908395,-64.296185,-140.82601)"
       cx="376"
       cy="376.36322"
       fx="376"
       fy="376.36322"
       r="176.84615" />
  </defs>
  <sodipodi:namedview
     pagecolor="#ffffff"
     bordercolor="#666666"
     borderopacity="1"
     objecttolerance="10"
     gridtolerance="10"
     guidetolerance="10"
     inkscape:pageopacity="0"
     inkscape:pageshadow="2"
     inkscape:window-width="1301"
     inkscape:window-height="744"
     id="namedview2987"
     showgrid="false"
     showguides="true"
     inkscape:guide-bbox="true"
     inkscape:zoom="1.4759"
     inkscape:cx="548.37666"
     inkscape:cy="246.74167"
     inkscape:window-x="65"
     inkscape:window-y="24"
     inkscape:window-maximized="1"
     inkscape:current-layer="svg2985"
     inkscape:document-units="in"
     units="in">
    <sodipodi:guide
       orientation="1,0"
       position="22.5,721.98"
       id="guide3304" />
    <sodipodi:guide
       orientation="1,0"
       position="967.5,545"
       id="guide3306" />
    <sodipodi:guide
       orientation="0,1"
       position="356.04,742.5"
       id="guide3308" />
    <sodipodi:guide
       orientation="0,1"
       position="235,22.5"
       id="guide3310" />
  </sodipodi:namedview>
  <g
     id="g3128"
     transform="matrix(6.4450161,0,0,-6.4450161,-33.736098,-132.776)" />
  <g
     id="g3396"
     transform="matrix(0.97588026,0,0,0.97588026,68.170581,-95.811529)">
    <path
       inkscape:connector-curvature="0"
       d="m 618.07971,203.33944 77.53131,-77.52509 c 4.46176,-4.46637 11.70384,-4.46637 16.17144,0 l 16.09934,16.09892 -20.42276,20.42311 c -4.74622,-1.60369 -10.18801,-0.52824 -13.97174,3.25564 -3.80126,3.80714 -4.86896,9.29553 -3.22649,14.05747 l -19.68239,19.68202 c -4.76181,-1.64074 -10.25621,-0.57822 -14.05941,3.23064 -5.31515,5.31346 -5.31515,13.92477 0,19.24168 5.31709,5.31776 13.92886,5.31776 19.2479,0 3.99805,-4.0019 4.98588,-9.87376 2.96152,-14.79943 l 18.35555,-18.35581 0.002,48.30367 c -1.29566,0.64371 -2.51924,1.49855 -3.59863,2.574 -5.31515,5.31345 -5.31515,13.92477 0,19.24598 5.31709,5.31518 13.93276,5.31518 19.24206,0 5.31514,-5.32121 5.31514,-13.93253 0,-19.24598 -1.3132,-1.3107 -2.83293,-2.30256 -4.45397,-2.96954 l 0,-48.75349 c 1.62104,-0.66268 3.13882,-1.6485 4.45397,-2.96954 4.02727,-4.02086 4.99561,-9.93063 2.93228,-14.87526 l 20.13052,-20.13443 53.16116,53.15696 c 4.46762,4.46981 4.46762,11.71183 0,16.17734 l -77.53129,77.52768 c -4.46371,4.46551 -11.70384,4.46551 -16.17339,0 l -77.16864,-77.16747 c -4.46567,-4.46724 -4.46567,-11.71356 0,-16.17907"
       style="fill:#ebd63e;fill-opacity:1;fill-rule:nonzero;stroke:#000000;stroke-width:1.07716823;stroke-miterlimit:4;stroke-dasharray:none"
       id="path3158" />
    <path
       inkscape:connector-curvature="0"
       id="path3233"
       d="m 868.24915,156.80836 c -5.20006,0 -8.20045,2.82304 -8.20045,8.01671 0,5.20143 3.00039,8.22698 8.20045,8.22698 5.29015,0 8.30522,-3.02555 8.30522,-8.22698 0,-5.19367 -3.01507,-8.01671 -8.30522,-8.01671 z m 25.59682,8.67163 c -1.00296,9.94097 -4.20656,13.96786 -12.23514,14.8813 l 0,8.12184 6.39263,0 c 0.73249,0 0.7336,0.37055 0.7336,0.91689 l 0,23.89418 c 0,10.31065 4.10705,14.67103 14.95987,14.67103 5.20105,0 10.93137,-1.72778 14.85501,-3.64169 l -2.46275,-8.01672 c -2.18925,0.82037 -4.83116,1.44082 -7.38823,1.44082 -4.92237,0 -6.20928,-2.0854 -6.20928,-7.46693 l 0,-21.79758 13.59751,0 0,-9.11715 -12.86395,0 c -0.7304,0 -0.73356,-0.28092 -0.73356,-0.91688 l 0,-12.96911 -8.64571,0 z m -67.80398,14.82873 c -13.95181,0 -20.88093,7.22392 -20.88093,17.71123 0,6.74997 3.365,11.48692 7.83356,13.67573 -2.18918,2.00612 -4.01793,3.7451 -5.65906,5.47546 -1.64431,1.73467 -2.6461,3.5469 -2.6461,5.55474 0,2.4637 0.99759,4.75333 4.00847,6.02525 -3.19205,3.01521 -5.00404,5.19626 -5.00404,9.30156 0,7.2041 6.28575,11.39644 22.79345,11.39644 15.87052,0 25.099,-5.93562 25.099,-16.42724 0,-12.12461 -9.3186,-12.56496 -25.099,-13.57146 l -8.93395,-0.54979 3.0129,-4.84726 c 1.64003,0.45586 4.28311,0.83847 7.20478,0.83847 11.48907,0 19.44001,-5.93649 19.44001,-16.06015 0,-4.19492 -1.74081,-7.12396 -3.37976,-9.22228 l 8.3838,-0.6282 0,-7.75561 -17.78933,0 c -2.09804,-0.55065 -4.46135,-0.91689 -8.3838,-0.91689 z m 31.4654,0.0259 -1.02182,7.38765 4.92548,1.7295 c 0.91494,0.27145 1.20526,0.91172 1.20526,1.91219 l 0,26.82839 c -9e-5,1.37102 -0.18972,1.64936 -1.46716,1.83377 l -4.66358,0.62906 0,7.20497 26.01604,0 0,-7.20497 -4.6635,-0.62906 c -1.37176,-0.18441 -1.46718,-0.37227 -1.46718,-1.83377 l 0,-37.85773 -18.86354,0 z m -30.65326,9.01202 c 5.19796,0 8.30524,2.82132 8.30524,8.20027 -8e-5,4.74643 -3.46352,7.75561 -8.56723,7.75561 -6.02158,0 -8.4886,-3.10397 -8.4886,-7.57206 0,-5.9296 3.73297,-8.38382 8.75059,-8.38382 z m -10.03431,41.86652 13.30927,0.91688 c 4.38054,0.27489 7.85981,0.45586 7.85981,3.37972 -8e-5,4.91879 -7.20696,5.26606 -12.49714,5.26606 -6.38636,0 -11.02998,-1.09612 -11.02998,-4.74212 9e-5,-1.82602 1.17056,-3.36335 2.35804,-4.82054 z"
       style="fill:#f03c2e;fill-opacity:1;fill-rule:nonzero;stroke:#000000;stroke-width:1.07716823;stroke-miterlimit:4;stroke-dasharray:none" />
    <g
       style="fill:#000000;stroke:none"
       transform="matrix(0.00715638,-0.00715638,-0.00715638,-0.00715638,721.34371,285.98237)"
       id="g3086">
      <path
         inkscape:connector-curvature="0"
         d="m 7840,5740 c -378,-30 -695,-166 -931,-400 -243,-241 -359,-535 -359,-908 0,-558 229,-948 740,-1257 130,-78 307,-163 613,-295 417,-179 572,-264 671,-370 122,-131 156,-340 79,-500 -15,-31 -54,-83 -89,-118 -118,-119 -304,-182 -535,-182 -390,0 -681,160 -915,506 -32,46 -61,84 -65,84 -9,0 -770,-439 -786,-454 -10,-9 -2,-30 37,-94 304,-512 779,-812 1421,-898 168,-23 483,-22 644,0 404,57 707,191 942,419 250,241 373,553 373,944 0,250 -41,445 -134,638 -64,132 -128,221 -238,333 -211,214 -484,376 -1029,610 -412,177 -550,253 -641,350 -87,93 -124,202 -116,338 7,108 37,181 103,252 95,103 205,146 375,145 193,0 318,-50 445,-178 45,-44 103,-115 130,-158 31,-49 54,-76 62,-73 26,11 753,481 753,488 0,4 -37,62 -82,130 -96,144 -269,324 -388,403 -220,146 -455,221 -765,244 -152,12 -172,12 -315,1 z"
         id="path3088" />
      <path
         inkscape:connector-curvature="0"
         d="m 4727,3923 -3,-1768 -22,-83 c -29,-109 -63,-174 -123,-234 -84,-84 -192,-119 -372,-120 -257,-1 -411,108 -590,414 -29,48 -55,87 -58,86 -4,-2 -185,-111 -402,-242 l -395,-240 30,-60 c 179,-357 489,-627 862,-751 394,-131 900,-119 1271,30 445,180 706,552 775,1105 6,56 10,681 10,1857 l 0,1773 -490,0 -489,0 -4,-1767 z"
         id="path3090" />
    </g>
  </g>
  <g
     id="g3403"
     transform="matrix(0.97588026,0,0,0.97588026,68.170581,-58.731797)">
    <path
       id="path3314"
       style="fill:#ebd63e;fill-opacity:1;fill-rule:nonzero;stroke:#000000;stroke-width:1.07716823;stroke-miterlimit:4;stroke-dasharray:none"
       d="m 915.20276,367.49126 -77.53131,77.52509 c -4.46176,4.46637 -11.70384,4.46637 -16.17144,0 l -16.09934,-16.09892 20.42277,-20.42311 c 4.74621,1.60368 10.188,0.52824 13.97173,-3.25564 3.80126,-3.80714 4.86896,-9.29553 3.22649,-14.05747 l 19.6824,-19.68202 c 4.7618,1.64074 10.2562,0.57822 14.0594,-3.23064 5.31515,-5.31346 5.31515,-13.92477 0,-19.24168 -5.31709,-5.31776 -13.92886,-5.31776 -19.2479,0 -3.99805,4.0019 -4.98588,9.87376 -2.96152,14.79943 l -18.35555,18.35581 -0.002,-48.30453 c 1.29566,-0.64285 2.51924,-1.49769 3.59863,-2.57314 5.31515,-5.31345 5.31515,-13.92563 0,-19.24598 -5.31709,-5.31518 -13.93275,-5.31518 -19.24206,0 -5.31514,5.32035 -5.31514,13.93253 0,19.24598 1.3132,1.3107 2.83293,2.30256 4.45397,2.96868 l 0,48.75435 c -1.62104,0.66268 -3.13882,1.6485 -4.45397,2.96954 -4.02727,4.02086 -4.99561,9.93063 -2.93228,14.87526 l -20.13052,20.13443 -53.16115,-53.15696 c -4.46762,-4.46981 -4.46762,-11.71183 0,-16.17734 l 77.53128,-77.52768 c 4.46371,-4.46551 11.70384,-4.46551 16.17339,0 l 77.1689,77.16747 c 4.46567,4.46724 4.46567,11.71356 0,16.17907"
       inkscape:connector-curvature="0" />
    <path
       style="fill:#f03c2e;fill-opacity:1;fill-rule:nonzero;stroke:#000000;stroke-width:1.07716823;stroke-miterlimit:4;stroke-dasharray:none"
       d="m 665.03333,414.02234 c 5.20006,0 8.20044,-2.82304 8.20044,-8.01671 0,-5.20143 -3.00038,-8.22698 -8.20044,-8.22698 -5.29016,0 -8.30523,3.02555 -8.30523,8.22698 0,5.19367 3.01507,8.01671 8.30523,8.01671 z m -25.59683,-8.67163 c 1.00296,-9.94097 4.20656,-13.96786 12.23514,-14.8813 l 0,-8.12184 -6.39263,0 c -0.73249,0 -0.7336,-0.37141 -0.7336,-0.91689 l 0,-23.89418 c 0,-10.31065 -4.10705,-14.67103 -14.95986,-14.67103 -5.20106,0 -10.93138,1.72778 -14.85502,3.64169 l 2.46275,8.01672 c 2.18925,-0.82037 4.83116,-1.44082 7.38823,-1.44082 4.92237,0 6.20928,2.0854 6.20928,7.46693 l 0,21.79758 -13.59751,0 0,9.11715 12.86395,0 c 0.7304,0 0.73356,0.28092 0.73356,0.91688 l 0,12.96911 8.64571,0 z m 67.80398,-14.82873 c 13.95181,0 20.88093,-7.22392 20.88093,-17.71123 0,-6.74997 -3.365,-11.48692 -7.83356,-13.67573 2.18918,-2.00612 4.01793,-3.74596 5.65906,-5.47546 1.64431,-1.73467 2.6461,-3.5469 2.6461,-5.55474 0,-2.4637 -0.99759,-4.75333 -4.00846,-6.02611 3.19204,-3.01435 5.00403,-5.1954 5.00403,-9.3007 0,-7.2041 -6.28575,-11.39644 -22.79345,-11.39644 -15.87052,0 -25.09899,5.93562 -25.09899,16.42724 0,12.12461 9.31859,12.56496 25.09899,13.57146 l 8.93395,0.54979 -3.01289,4.84726 c -1.64004,-0.45586 -4.28312,-0.83847 -7.20479,-0.83847 -11.48906,0 -19.44001,5.93649 -19.44001,16.06015 0,4.19492 1.74081,7.12395 3.37976,9.22228 l -8.3838,0.6282 0,7.75561 17.78933,0 c 2.09804,0.55065 4.46135,0.91689 8.3838,0.91689 z m -31.4654,-0.0258 1.02182,-7.38765 -4.92548,-1.7295 c -0.91494,-0.27145 -1.20525,-0.91172 -1.20525,-1.91219 l 0,-26.82839 c 8e-5,-1.37102 0.18971,-1.64936 1.46715,-1.83377 l 4.66358,-0.62906 0,-7.20497 -26.01604,0 0,7.20497 4.6635,0.62906 c 1.37177,0.18441 1.46718,0.37227 1.46718,1.83377 l 0,37.85773 18.86354,0 z m 30.65326,-9.01202 c -5.19796,0 -8.30524,-2.82132 -8.30524,-8.20027 8e-5,-4.74643 3.46352,-7.75561 8.56723,-7.75561 6.02158,0 8.4886,3.10397 8.4886,7.57206 0,5.9296 -3.73297,8.38382 -8.75059,8.38382 z m 10.03431,-41.86652 -13.30927,-0.91688 c -4.38053,-0.27489 -7.85981,-0.45586 -7.85981,-3.37972 8e-5,-4.91879 7.20696,-5.26606 12.49714,-5.26606 6.38636,0 11.02998,1.09612 11.02998,4.74212 -9e-5,1.82602 -1.17056,3.36335 -2.35804,4.82054 z"
       id="path3316"
       inkscape:connector-curvature="0" />
    <g
       id="g3318"
       transform="matrix(-0.00715638,0.00715638,0.00715638,0.00715638,811.93876,284.84833)"
       style="fill:#000000;stroke:none">
      <path
         id="path3320"
         d="m 7840,5740 c -378,-30 -695,-166 -931,-400 -243,-241 -359,-535 -359,-908 0,-558 229,-948 740,-1257 130,-78 307,-163 613,-295 417,-179 572,-264 671,-370 122,-131 156,-340 79,-500 -15,-31 -54,-83 -89,-118 -118,-119 -304,-182 -535,-182 -390,0 -681,160 -915,506 -32,46 -61,84 -65,84 -9,0 -770,-439 -786,-454 -10,-9 -2,-30 37,-94 304,-512 779,-812 1421,-898 168,-23 483,-22 644,0 404,57 707,191 942,419 250,241 373,553 373,944 0,250 -41,445 -134,638 -64,132 -128,221 -238,333 -211,214 -484,376 -1029,610 -412,177 -550,253 -641,350 -87,93 -124,202 -116,338 7,108 37,181 103,252 95,103 205,146 375,145 193,0 318,-50 445,-178 45,-44 103,-115 130,-158 31,-49 54,-76 62,-73 26,11 753,481 753,488 0,4 -37,62 -82,130 -96,144 -269,324 -388,403 -220,146 -455,221 -765,244 -152,12 -172,12 -315,1 z"
         inkscape:connector-curvature="0" />
      <path
         id="path3322"
         d="m 4727,3923 -3,-1768 -22,-83 c -29,-109 -63,-174 -123,-234 -84,-84 -192,-119 -372,-120 -257,-1 -411,108 -590,414 -29,48 -55,87 -58,86 -4,-2 -185,-111 -402,-242 l -395,-240 30,-60 c 179,-357 489,-627 862,-751 394,-131 900,-119 1271,30 445,180 706,552 775,1105 6,56 10,681 10,1857 l 0,1773 -490,0 -489,0 -4,-1767 z"
         inkscape:connector-curvature="0" />
    </g>
  </g>
  <g
     id="g3410"
     transform="matrix(0.97588026,0,0,0.97588026,68.170581,-19.158272)">
    <path
       id="path6256"
       style="fill:#ebd63e;fill-opacity:1;fill-rule:nonzero;stroke:#000000;stroke-width:1.07716823;stroke-miterlimit:4;stroke-dasharray:none"
       d="m 618.17749,497.44687 77.53131,-77.52595 c 4.46176,-4.46551 11.70384,-4.46551 16.17144,0 l 16.09934,16.09979 -20.42276,20.42224 c -4.74622,-1.60368 -10.18801,-0.52738 -13.97174,3.25564 -3.80126,3.80714 -4.86896,9.29639 -3.22649,14.05747 l -19.68239,19.68288 c -4.76181,-1.64074 -10.25621,-0.57908 -14.05941,3.22978 -5.31515,5.31346 -5.31515,13.92564 0,19.24254 5.31709,5.3169 13.92886,5.3169 19.2479,0 3.99805,-4.0019 4.98588,-9.87462 2.96152,-14.79943 l 18.35555,-18.35581 0.002,48.30367 c -1.29566,0.64285 -2.51924,1.49856 -3.59863,2.574 -5.31515,5.31346 -5.31515,13.92477 0,19.24598 5.31709,5.31518 13.93276,5.31518 19.24206,0 5.31514,-5.32121 5.31514,-13.93252 0,-19.24598 -1.3132,-1.31156 -2.83293,-2.30342 -4.45397,-2.96954 l 0,-48.75349 c 1.62104,-0.66268 3.13882,-1.6485 4.45397,-2.96954 4.02727,-4.02172 4.99561,-9.93063 2.93228,-14.87612 l 20.13052,-20.13443 53.16116,53.15782 c 4.46762,4.46895 4.46762,11.71097 0,16.17734 l -77.53129,77.52682 c -4.46371,4.46551 -11.70384,4.46551 -16.17339,0 l -77.1689,-77.16661 c -4.46566,-4.4681 -4.46566,-11.71356 0,-16.17907"
       inkscape:connector-curvature="0" />
    <path
       style="fill:#f03c2e;fill-opacity:1;fill-rule:nonzero;stroke:#000000;stroke-width:1.07716823;stroke-miterlimit:4;stroke-dasharray:none"
       d="m 868.34693,450.91493 c -5.20006,0 -8.20045,2.8239 -8.20045,8.01757 0,5.20057 3.00039,8.22612 8.20045,8.22612 5.29015,0 8.30522,-3.02555 8.30522,-8.22612 0,-5.19367 -3.01507,-8.01757 -8.30522,-8.01757 z m 25.59682,8.67249 c -1.00296,9.94097 -4.20656,13.967 -12.23514,14.8813 l 0,8.12185 6.39263,0 c 0.7325,0 0.7336,0.37054 0.7336,0.91688 l 0,23.89332 c 0,10.31151 4.10705,14.67189 14.95987,14.67189 5.20105,0 10.93137,-1.72778 14.85501,-3.64169 l -2.46274,-8.01672 c -2.18926,0.82037 -4.83117,1.44082 -7.38824,1.44082 -4.92237,0 -6.20928,-2.08539 -6.20928,-7.46693 l 0,-21.79757 13.59752,0 0,-9.11802 -12.86396,0 c -0.7304,0 -0.73356,-0.28092 -0.73356,-0.91688 l 0,-12.96825 -8.64571,0 z m -67.80398,14.82873 c -13.95181,0 -20.88093,7.22392 -20.88093,17.71037 0,6.74997 3.365,11.48692 7.83356,13.67659 -2.18918,2.00526 -4.01793,3.7451 -5.65906,5.47546 -1.64431,1.73467 -2.6461,3.54604 -2.6461,5.55388 0,2.4637 0.99759,4.75419 4.00847,6.02611 -3.19205,3.01521 -5.00404,5.19626 -5.00404,9.3007 0,7.20497 6.28575,11.39644 22.79345,11.39644 15.87053,0 25.099,-5.93562 25.099,-16.42638 0,-12.12547 -9.31859,-12.56582 -25.099,-13.57146 l -8.93394,-0.54979 3.01289,-4.84725 c 1.64003,0.45585 4.28311,0.83846 7.20478,0.83846 11.48907,0 19.44002,-5.93649 19.44002,-16.06014 0,-4.19493 -1.74082,-7.12396 -3.37977,-9.22229 l 8.3838,-0.62906 0,-7.75475 -17.78933,0 c -2.09804,-0.55151 -4.46135,-0.91689 -8.3838,-0.91689 z m 31.4654,0.0258 -1.02182,7.38852 4.92548,1.72864 c 0.91494,0.27144 1.20526,0.91171 1.20526,1.91305 l 0,26.82838 c -9e-5,1.37016 -0.18972,1.64936 -1.46716,1.83377 l -4.66358,0.62821 0,7.20496 26.01604,0 0,-7.20496 -4.66349,-0.62821 c -1.37177,-0.18441 -1.46719,-0.37227 -1.46719,-1.83377 l 0,-37.85859 -18.86354,0 z m -30.65326,9.01289 c 5.19796,0 8.30524,2.82131 8.30524,8.20026 -8e-5,4.74644 -3.46351,7.75475 -8.56723,7.75475 -6.02158,0 -8.4886,-3.10397 -8.4886,-7.5712 0,-5.92959 3.73297,-8.38381 8.75059,-8.38381 z m -10.03431,41.86651 13.30927,0.91688 c 4.38054,0.2749 7.85982,0.45586 7.85982,3.37973 -9e-5,4.91792 -7.20697,5.26606 -12.49715,5.26606 -6.38635,0 -11.02998,-1.09613 -11.02998,-4.74213 9e-5,-1.82687 1.17056,-3.36421 2.35804,-4.82054 z"
       id="path6258"
       inkscape:connector-curvature="0" />
    <g
       id="g6260"
       transform="matrix(0.00715638,-0.00715638,-0.00715638,-0.00715638,721.44149,580.0898)"
       style="fill:#000000;stroke:none">
      <path
         id="path6262"
         d="m 7840,5740 c -378,-30 -695,-166 -931,-400 -243,-241 -359,-535 -359,-908 0,-558 229,-948 740,-1257 130,-78 307,-163 613,-295 417,-179 572,-264 671,-370 122,-131 156,-340 79,-500 -15,-31 -54,-83 -89,-118 -118,-119 -304,-182 -535,-182 -390,0 -681,160 -915,506 -32,46 -61,84 -65,84 -9,0 -770,-439 -786,-454 -10,-9 -2,-30 37,-94 304,-512 779,-812 1421,-898 168,-23 483,-22 644,0 404,57 707,191 942,419 250,241 373,553 373,944 0,250 -41,445 -134,638 -64,132 -128,221 -238,333 -211,214 -484,376 -1029,610 -412,177 -550,253 -641,350 -87,93 -124,202 -116,338 7,108 37,181 103,252 95,103 205,146 375,145 193,0 318,-50 445,-178 45,-44 103,-115 130,-158 31,-49 54,-76 62,-73 26,11 753,481 753,488 0,4 -37,62 -82,130 -96,144 -269,324 -388,403 -220,146 -455,221 -765,244 -152,12 -172,12 -315,1 z"
         inkscape:connector-curvature="0" />
      <path
         id="path6264"
         d="m 4727,3923 -3,-1768 -22,-83 c -29,-109 -63,-174 -123,-234 -84,-84 -192,-119 -372,-120 -257,-1 -411,108 -590,414 -29,48 -55,87 -58,86 -4,-2 -185,-111 -402,-242 l -395,-240 30,-60 c 179,-357 489,-627 862,-751 394,-131 900,-119 1271,30 445,180 706,552 775,1105 6,56 10,681 10,1857 l 0,1773 -490,0 -489,0 -4,-1767 z"
         inkscape:connector-curvature="0" />
    </g>
  </g>
  <g
     id="g3417"
     transform="matrix(0.97588026,0,0,0.97588026,68.170581,17.921242)">
    <path
       inkscape:connector-curvature="0"
       d="m 915.30057,661.59869 -77.53131,77.52509 c -4.46176,4.46551 -11.70384,4.46551 -16.17144,0 L 805.49848,723.024 825.92124,702.60175 c 4.74622,1.60369 10.18801,0.52824 13.97174,-3.25563 3.80125,-3.80715 4.86896,-9.29554 3.22649,-14.05748 l 19.68239,-19.68288 c 4.76181,1.64074 10.2562,0.57908 14.05941,-3.22978 5.31514,-5.31346 5.31514,-13.92563 0,-19.24254 -5.31709,-5.3169 -13.92886,-5.3169 -19.2479,0 -3.99805,4.0019 -4.98588,9.87462 -2.96153,14.8003 l -18.35555,18.35494 -0.002,-48.30367 c 1.29566,-0.64285 2.51924,-1.49855 3.59863,-2.574 5.31514,-5.31259 5.31514,-13.92477 0,-19.24598 -5.31709,-5.31518 -13.93276,-5.31518 -19.24206,0 -5.31514,5.32121 -5.31514,13.93339 0,19.24598 1.3132,1.31156 2.83293,2.30342 4.45397,2.96954 l 0,48.75436 c -1.62104,0.66181 -3.13882,1.64763 -4.45397,2.96867 -4.02727,4.02172 -4.99561,9.93149 -2.93228,14.87613 l -20.13052,20.13443 -53.16116,-53.15697 c -4.46762,-4.46981 -4.46762,-11.71183 0,-16.17734 l 77.53129,-77.52767 c 4.46371,-4.46551 11.70384,-4.46551 16.17339,0 l 77.1689,77.1666 c 4.46566,4.4681 4.46566,11.71356 0,16.17993"
       style="fill:#ebd63e;fill-opacity:1;fill-rule:nonzero;stroke:#000000;stroke-width:1.07716823;stroke-miterlimit:4;stroke-dasharray:none"
       id="path6268" />
    <path
       inkscape:connector-curvature="0"
       id="path6270"
       d="m 665.13113,708.12978 c 5.20006,0 8.20045,-2.82305 8.20045,-8.01672 0,-5.20143 -3.00039,-8.22698 -8.20045,-8.22698 -5.29015,0 -8.30522,3.02555 -8.30522,8.22698 0,5.19367 3.01507,8.01672 8.30522,8.01672 z m -25.59682,-8.6725 c 1.00296,-9.94097 4.20656,-13.967 12.23514,-14.88043 l 0,-8.12185 -6.39264,0 c -0.73249,0 -0.73359,-0.37141 -0.73359,-0.91775 l 0,-23.89331 c 0,-10.31152 -4.10705,-14.6719 -14.95987,-14.6719 -5.20105,0 -10.93137,1.72864 -14.85501,3.64169 l 2.46274,8.01758 c 2.18926,-0.82123 4.83117,-1.44168 7.38824,-1.44168 4.92237,0 6.20928,2.0854 6.20928,7.46693 l 0,21.79844 -13.59752,0 0,9.11715 12.86396,0 c 0.7304,0 0.73356,0.28093 0.73356,0.91689 l 0,12.96824 8.64571,0 z m 67.80398,-14.82873 c 13.95181,0 20.88093,-7.22306 20.88093,-17.71037 0,-6.74997 -3.365,-11.48692 -7.83356,-13.67659 2.18917,-2.00526 4.01793,-3.7451 5.65906,-5.47546 1.64431,-1.73381 2.64609,-3.54604 2.64609,-5.55388 0,-2.4637 -0.99758,-4.75419 -4.00846,-6.02611 3.19205,-3.01521 5.00404,-5.1954 5.00404,-9.3007 0,-7.20496 -6.28576,-11.39644 -22.79345,-11.39644 -15.87053,0 -25.099,5.93563 -25.099,16.42638 0,12.12547 9.31859,12.56582 25.099,13.57146 l 8.93394,0.55065 -3.01289,4.8464 c -1.64003,-0.45586 -4.28311,-0.83847 -7.20478,-0.83847 -11.48907,0 -19.44002,5.93735 -19.44002,16.06015 0,4.19578 1.74082,7.12482 3.37977,9.22228 l -8.3838,0.62907 0,7.75474 17.78933,0 c 2.09804,0.55151 4.46135,0.91689 8.3838,0.91689 z m -31.4654,-0.0258 1.02182,-7.38851 -4.92548,-1.72864 c -0.91494,-0.27145 -1.20526,-0.91172 -1.20526,-1.91305 l 0,-26.82753 c 9e-5,-1.37102 0.18972,-1.65022 1.46716,-1.83463 l 4.66358,-0.6282 0,-7.20497 -26.01604,0 0,7.20497 4.66349,0.6282 c 1.37177,0.18441 1.46718,0.37227 1.46718,1.83463 l 0,37.85773 18.86355,0 z m 30.65326,-9.01288 c -5.19796,0 -8.30525,-2.82046 -8.30525,-8.20027 9e-5,-4.74643 3.46352,-7.75475 8.56724,-7.75475 6.02158,0 8.48859,3.10397 8.48859,7.5712 0,5.9296 -3.73296,8.38382 -8.75058,8.38382 z m 10.03431,-41.86652 -13.30927,-0.91688 c -4.38054,-0.27403 -7.85982,-0.45586 -7.85982,-3.37973 9e-5,-4.91792 7.20697,-5.26606 12.49715,-5.26606 6.38635,0 11.02997,1.09613 11.02997,4.74213 -8e-5,1.82688 -1.17055,3.36421 -2.35803,4.82054 z"
       style="fill:#f03c2e;fill-opacity:1;fill-rule:nonzero;stroke:#000000;stroke-width:1.07716823;stroke-miterlimit:4;stroke-dasharray:none" />
    <g
       style="fill:#000000;stroke:none"
       transform="matrix(-0.00715638,0.00715638,0.00715638,0.00715638,812.03657,578.9549)"
       id="g6272">
      <path
         inkscape:connector-curvature="0"
         d="m 7840,5740 c -378,-30 -695,-166 -931,-400 -243,-241 -359,-535 -359,-908 0,-558 229,-948 740,-1257 130,-78 307,-163 613,-295 417,-179 572,-264 671,-370 122,-131 156,-340 79,-500 -15,-31 -54,-83 -89,-118 -118,-119 -304,-182 -535,-182 -390,0 -681,160 -915,506 -32,46 -61,84 -65,84 -9,0 -770,-439 -786,-454 -10,-9 -2,-30 37,-94 304,-512 779,-812 1421,-898 168,-23 483,-22 644,0 404,57 707,191 942,419 250,241 373,553 373,944 0,250 -41,445 -134,638 -64,132 -128,221 -238,333 -211,214 -484,376 -1029,610 -412,177 -550,253 -641,350 -87,93 -124,202 -116,338 7,108 37,181 103,252 95,103 205,146 375,145 193,0 318,-50 445,-178 45,-44 103,-115 130,-158 31,-49 54,-76 62,-73 26,11 753,481 753,488 0,4 -37,62 -82,130 -96,144 -269,324 -388,403 -220,146 -455,221 -765,244 -152,12 -172,12 -315,1 z"
         id="path6274" />
      <path
         inkscape:connector-curvature="0"
         d="m 4727,3923 -3,-1768 -22,-83 c -29,-109 -63,-174 -123,-234 -84,-84 -192,-119 -372,-120 -257,-1 -411,108 -590,414 -29,48 -55,87 -58,86 -4,-2 -185,-111 -402,-242 l -395,-240 30,-60 c 179,-357 489,-627 862,-751 394,-131 900,-119 1271,30 445,180 706,552 775,1105 6,56 10,681 10,1857 l 0,1773 -490,0 -489,0 -4,-1767 z"
         id="path6276" />
    </g>
  </g>
  <g
     id="g5411"
     transform="matrix(0.46736445,0,0,0.46736445,-1.9641115,494.5655)">
    <path
       inkscape:connector-curvature="0"
       id="path4140"
       d="m 371.49893,45.788636 c -146.08886,6e-5 -265.04306,118.803754 -265.04306,264.892924 0,7.09438 0.33862,14.11523 0.90278,21.07102 l 24.08108,0 c -0.62281,-6.9654 -0.90278,-13.95614 -0.90278,-21.07102 0,-133.05969 107.9026,-240.811721 240.96198,-240.811721 133.06,0 240.66151,107.751971 240.66151,240.811721 l 4.6656,21.07102 18.5127,0 c 0.5563,-6.97085 0.9027,-13.96775 0.9027,-21.07102 0,-146.08911 -118.65303,-264.892924 -264.74251,-264.892924 z"
       style="fill:#729fcf;fill-opacity:1;fill-rule:evenodd;stroke:none;filter:url(#filter5109)" />
    <path
       inkscape:connector-curvature="0"
       id="path4138"
       d="m 370.125,93.90625 c -0.39644,-0.01027 -0.78177,-0.0099 -1.1875,0.03125 -12.17267,1.22882 -21.65625,11.58653 -21.65625,24.09375 l 0,108.375 c 0,13.34101 10.721,24.0625 24.0625,24.0625 13.34088,6e-5 24.09375,-10.72155 24.09375,-24.0625 l 0,-108.375 c 0,-13.34095 -10.75287,-24.09375 -24.09375,-24.09375 -0.41692,0 -0.82231,-0.02098 -1.21875,-0.03125 z M 177.5,286.5625 c -0.39629,-0.0102 -0.81302,-0.01 -1.21875,0.0312 -12.17266,1.22881 -21.65625,11.58658 -21.65625,24.09375 0,13.34101 10.72161,24.0625 24.0625,24.0625 l 108.375,0 c 13.34028,0 24.09375,-10.72155 24.09375,-24.0625 0,-13.34095 -10.75286,-24.09375 -24.09375,-24.09375 l -108.375,0 c -0.41692,0 -0.79121,-0.0211 -1.1875,-0.0312 z m 276.90625,0 c -0.39644,-0.0102 -0.78176,-0.01 -1.1875,0.0312 -12.17266,1.22881 -21.65625,11.58658 -21.65625,24.09375 0,13.34101 10.72101,24.0625 24.0625,24.0625 l 108.375,0 c 13.3409,0 24.09375,-10.72155 24.09375,-24.0625 0,-13.34095 -10.75285,-24.09375 -24.09375,-24.09375 l -108.375,0 c -0.41692,0 -0.82231,-0.0211 -1.21875,-0.0312 z"
       style="fill:url(#radialGradient3390);fill-opacity:1;fill-rule:evenodd;stroke:#204a87;filter:url(#filter5109)" />
    <path
       inkscape:connector-curvature="0"
       id="path4136"
       d="m 262.96875,123 c -32.88148,19.02481 -60.28769,46.43108 -79.3125,79.3125 9.28777,21.27558 30.56485,36.125 55.25,36.125 33.2322,6e-5 60.1875,-26.95555 60.1875,-60.1875 0,-24.68533 -14.84899,-45.96247 -36.125,-55.25 z m 216.75,0 c -21.276,9.28759 -36.125,30.56467 -36.125,55.25 0,33.23201 26.95531,60.1875 60.1875,60.1875 24.68515,6e-5 45.9622,-14.84948 55.25,-36.125 C 540.01612,169.41427 512.60326,142.0259 479.71875,123 z"
       style="fill:url(#radialGradient3392);fill-opacity:1;fill-rule:evenodd;stroke:#204a87;filter:url(#filter5109)" />
    <path
       inkscape:connector-curvature="0"
       id="path4132"
       d="m 295.64338,133.83542 c 9.63848,12.28053 15.50259,27.66358 15.50259,44.39971 0,39.74669 -32.49691,72.24348 -72.24385,72.24348 -16.73612,6e-5 -32.11899,-5.86375 -44.39928,-15.50223 l 16.85645,39.58343 75.7056,0 c 19.80302,7e-5 36.12132,16.31854 36.12132,36.12175 0,4.18693 -0.75887,8.28879 -2.10668,12.0406 l 64.2664,0 12.04085,-12.0406 8.27736,0 6.47181,0 7.37519,0 c 0,-19.80315 16.31829,-36.12175 36.12192,-36.12175 l 75.705,0 16.85708,-39.58343 c -12.28092,9.63854 -27.66379,15.50223 -44.39992,15.50223 -39.74693,6e-5 -72.24384,-32.49679 -72.24384,-72.24348 0,-16.73613 5.86411,-32.11924 15.50259,-44.39971 l -39.58367,16.85682 0,75.70523 c 0,19.80321 -16.3183,36.12174 -36.12132,36.12174 -19.80363,6e-5 -36.12193,-16.31859 -36.12193,-36.12174 l 0,-75.70523 -39.58367,-16.85682 z"
       style="fill:url(#radialGradient3394);fill-opacity:1;fill-rule:evenodd;stroke:#ce5c00;stroke-width:2;stroke-linecap:butt;stroke-linejoin:miter;stroke-miterlimit:4;stroke-opacity:1;stroke-dasharray:none;filter:url(#filter4986)" />
    <path
       inkscape:connector-curvature="0"
       id="path4126"
       d="m 397.375,322.71875 0,14.75 14.75,0 0,-14.75 -6.46875,0 -8.28125,0 z m 192.65625,0 0,14.75 14.75,0 0,-14.75 -14.75,0 z m -244.5625,14.75 0,81.5625 14.75,0 0,-59.28125 7.53125,0 7.375,-14.75 -14.90625,0 0,-7.53125 -14.75,0 z M 91.71875,345 C 72.1455,345.98568 56.5,362.21462 56.5,382.03125 c 0,20.45056 16.54938,37 37,37 17.90919,6e-5 32.84187,-12.72634 36.28125,-29.625 l -15.1875,0 c -3.05783,8.6239 -11.42624,14.90625 -21.09375,14.90625 -12.27061,6e-5 -22.25,-10.01094 -22.25,-22.28125 -6e-4,-11.93461 9.41252,-21.75718 21.21875,-22.28125 0.33257,-0.0121 0.69566,0 1.03125,0 9.66751,0 18.03652,6.28241 21.09375,14.90625 l 15.1875,0 C 126.34187,357.75753 111.40919,345 93.5,345 c -0.39908,6e-5 -0.79144,-0.0121 -1.1875,0 -0.15721,0.005 -0.31154,-0.006 -0.46875,0 -0.0786,0.004 -0.04643,-0.004 -0.125,0 z m 80.96875,0 c -19.35799,1.21346 -34.625,17.36911 -34.625,37.03125 l 0,1.03125 0,35.96875 14.75,0 0,-35.96875 0,-1.03125 c 0,-11.93461 7.41831,-22.28125 21.21875,-22.28125 l 8.4375,0 c 0,0 -8.36731,-13.88652 -9.03125,-14.75 0,4.9e-4 -0.14416,-6e-5 -0.15625,0 -0.0605,-1.8e-4 -0.11997,1.9e-4 -0.15625,0 -0.0605,-2.4e-4 -0.11392,2.5e-4 -0.15625,0 -0.0786,0.004 -0.20264,-0.005 -0.28125,0 z m 44.6875,0 c -19.46501,1.10039 -34.90625,17.29201 -34.90625,37.03125 0,20.45056 16.58063,37 37.03125,37 15.17789,6e-5 28.27738,-9.17517 34,-22.25 l -17.46875,0 c -4.07671,4.54145 -9.96027,7.53125 -16.53125,7.53125 -12.27001,6e-5 -22.28125,-10.01094 -22.28125,-22.28125 0,-11.79475 9.29472,-21.55008 20.90625,-22.28125 0.13907,-0.006 0.17343,0.006 0.3125,0 0.33257,-0.0121 0.72751,0 1.0625,0 9.66751,0 17.84903,6.28241 20.90625,14.90625 l -28.28125,0 -7.375,14.75 51,0 c 0.48979,-2.39758 0.75,-4.83399 0.75,-7.375 C 256.49939,361.58086 239.95063,345 219.5,345 c -0.39908,6e-5 -0.82208,-0.0121 -1.21875,0 -0.15721,0.005 -0.28029,-0.006 -0.4375,0 -0.0605,-1.8e-4 -0.11393,1.9e-4 -0.15625,0 0,3.1e-4 -0.14416,-4.2e-4 -0.15625,0 -0.0786,0.004 -0.0777,-0.004 -0.15625,0 z m 81.28125,0 c -19.35799,1.21346 -34.78125,17.36911 -34.78125,37.03125 0,20.45056 16.73687,37 37.1875,37 5.27395,6e-5 10.20468,-1.16633 14.75,-3.15625 l 7.375,-19.09375 c -3.93219,3.51526 -16.43987,7.53125 -22.125,7.53125 -12.27062,6e-5 -22.28125,-10.01094 -22.28125,-22.28125 -6e-4,-11.79475 9.16972,-21.55008 20.78125,-22.28125 0.13907,-0.006 0.29843,0.006 0.4375,0 0.33257,-0.0121 0.72691,0 1.0625,0 l 1.34375,0 20.78125,0 0,37.03125 0,22.25 14.90625,0 0,-74.03125 -35.8125,0 -1.0625,0 c -0.0786,-3.6e-4 -0.0777,0 -0.15625,0 -0.39909,6e-5 -0.82269,-0.0121 -1.21875,0 -0.15721,0.005 -0.28029,-0.006 -0.4375,0 0,4.9e-4 -0.14415,-6e-5 -0.15625,0 -0.0605,-1.8e-4 -0.11997,1.9e-4 -0.15625,0 -0.0605,-2.4e-4 -0.11393,2.5e-4 -0.15625,0 0,3.1e-4 -0.11291,-4.8e-4 -0.125,0 -0.0786,0.004 -0.0777,-0.005 -0.15625,0 z m 83.84375,0 7.375,14.75 7.5,0 0,59.28125 14.75,0 0,-74.03125 -29.625,0 z m 72.6875,0 c -19.79032,0.75083 -35.6875,17.05855 -35.6875,37.03125 0,20.45056 16.58062,37 37.03125,37 20.45063,6e-5 37.1875,-16.5495 37.1875,-37 0,-20.45039 -16.73687,-37.03125 -37.1875,-37.03125 -0.39909,6e-5 -0.79144,-0.0121 -1.1875,0 -0.0786,0.003 -0.0777,-0.003 -0.15625,0 z m 45.90625,0 0,74.03125 14.75,0 0,-59.28125 0,-14.75 -14.75,0 z m 14.75,14.75 22.28125,0 c 12.27005,0 22.25,10.01105 22.25,22.28125 l 0,1.03125 0,28.625 0,7.34375 14.75,0 0,-35.96875 0,-1.03125 C 575.125,361.58086 558.57565,345 538.125,345 l -14.75,0 -7.53125,14.75 z M 575.125,345 l 7.375,14.75 7.53125,0 0,59.28125 14.75,0 0,-74.03125 -29.65625,0 z m 37.78125,0 c -0.4898,2.39777 -0.75,4.83538 -0.75,7.375 0,12.11595 5.90505,22.89534 14.90625,29.65625 -9.0012,6.76622 -14.90625,17.53795 -14.90625,29.65625 0,2.54101 0.2632,4.94616 0.75,7.34375 l 15.34375,0 c -0.823,-2.32164 -1.1875,-4.74112 -1.1875,-7.34375 0,-11.79486 9.17035,-21.55008 20.78125,-22.28125 0,7.3e-4 0.1008,10e-4 0.125,0 0.01,2.4e-4 0.15025,3.1e-4 0.15625,0 0.061,0.002 0.0901,-0.002 0.15625,0 0.061,-10e-4 0.12595,6.7e-4 0.15625,0 0.06,10e-4 0.10215,-10e-4 0.15625,0 0.067,10e-4 0.0901,-9e-4 0.15625,0 0.073,9.1e-4 0.20875,-10e-4 0.28125,0 0.079,4.9e-4 0.078,0 0.15625,0 0.079,6e-5 0.2339,4.9e-4 0.3125,0 0.067,-5.4e-4 0.21475,7.3e-4 0.28125,0 0.127,-0.002 0.34175,0.003 0.46875,0 11.8062,0.52425 21.21875,10.34653 21.21875,22.28125 0,2.60269 -0.3646,5.02205 -1.1875,7.34375 l 15.34375,0 c 0.4898,-2.39753 0.75,-4.8028 0.75,-7.34375 0,-12.11576 -5.90515,-22.89529 -14.90625,-29.65625 9.0011,-6.76085 14.90625,-17.54037 14.90625,-29.65625 0,-2.54083 -0.2633,-4.97741 -0.75,-7.375 l -15.34375,0 c 0.8229,2.3217 1.1875,4.77237 1.1875,7.375 0,11.93485 -9.41255,21.75712 -21.21875,22.28125 0,-5.5e-4 -0.13205,6.6e-4 -0.15625,0 -0.061,0.002 -0.10785,-0.002 -0.15625,0 -0.06,-7.9e-4 -0.10795,7.2e-4 -0.15625,0 -0.066,-6.7e-4 -0.21475,4.8e-4 -0.28125,0 0,-1.2e-4 -0.12605,1.8e-4 -0.15625,0 -0.061,4.2e-4 -0.10785,0 -0.15625,0 -0.097,0 -0.0661,10e-4 -0.15625,0 -0.085,-7.3e-4 -0.19055,7.2e-4 -0.28125,0 0,-3e-4 -0.13805,4.8e-4 -0.15625,0 -0.06,0 -0.12005,-1.2e-4 -0.15625,0 -0.01,-2.4e-4 -0.15025,-1.8e-4 -0.15625,0 -0.01,-2.4e-4 -0.15015,-1.8e-4 -0.15625,0 -11.7863,-0.54542 -21.0625,-10.36086 -21.0625,-22.28125 0,-2.59041 0.40185,-5.05783 1.21875,-7.375 l -15.375,0 z m -157.5625,14.75 c 0.0907,-0.005 0.1845,0.004 0.28125,0 0.33257,-0.0121 0.57186,0 0.90625,0 12.27062,0 22.28125,10.01105 22.28125,22.28125 -6.1e-4,12.27037 -10.01063,22.28125 -22.28125,22.28125 -12.27002,6e-5 -22.125,-10.01094 -22.125,-22.28125 0,-11.84137 9.26128,-21.61835 20.9375,-22.28125 z"
       style="fill:#000000;fill-opacity:1;fill-rule:evenodd;stroke:none;filter:url(#filter5231)" />
    <path
       inkscape:connector-curvature="0"
       id="path4098"
       d="m 368.625,431.09375 c -1.46331,0 -2.90741,0.30285 -4.1875,1.0625 -1.2807,0.70934 -2.25425,1.83479 -3.03125,3 l -16.6875,24.6875 c -0.45955,0.55751 -0.625,1.33815 -0.625,2.25 0,1.01337 0.11268,1.85322 0.75,2.5625 0.64035,0.70934 1.64764,1.0625 2.5625,1.0625 1.00618,6e-5 1.72055,-0.30679 2.40625,-1.21875 l 16.125,-23.9375 c 0.2721,-0.40513 0.72976,-0.73145 1.1875,-1.1875 0.50188,-0.50671 0.99691,-0.75 1.5,-0.75 0.50188,0 1.07412,0.24353 1.53125,0.75 0.50188,0.45593 0.71138,0.78231 1.03125,1.1875 l 16.125,23.78125 c 0.64035,0.96258 1.43377,1.375 2.53125,1.375 0.91427,6e-5 1.79715,-0.35304 2.4375,-1.0625 0.64035,-0.70928 0.75,-1.54919 0.75,-2.5625 0,-0.50672 0.0554,-0.9385 -0.15625,-1.34375 -0.1814,-0.45592 -0.34685,-0.86405 -0.625,-1.21875 L 375.5625,434.6875 c -0.77761,-1.16508 -1.79651,-2.02877 -3.03125,-2.6875 -1.23474,-0.65849 -2.53425,-0.90625 -3.90625,-0.90625 z m -263.90625,1.46875 c -0.22562,-0.0108 -0.43645,-0.012 -0.65625,0.0312 -1.31818,0.26001 -2.50792,1.03001 -3.46875,2.09375 -1.234737,1.41862 -1.8125,3.36051 -1.8125,5.4375 l 0,21.96875 c -6e-4,1.01337 0.42034,1.85322 1.0625,2.5625 0.64035,0.70934 1.33513,1.0625 2.25,1.0625 0.91426,6e-5 1.76591,-0.35304 2.40625,-1.0625 0.64035,-0.70928 0.90625,-1.54919 0.90625,-2.5625 l 0,-14.90625 c -6e-4,-1.82369 0.005,-3.25611 0.15625,-4.21875 0.1814,-0.96257 0.65745,-1.5 1.34375,-1.5 0.36885,0 0.95096,0.23881 1.5,0.59375 0.59258,0.30415 1.25669,0.81779 2.125,1.375 l 31.4375,21.21875 c 0.50188,0.35494 1.06186,0.54713 1.65625,0.75 0.64035,0.20256 1.17215,0.3125 1.8125,0.3125 1.87448,6e-5 3.42151,-0.70644 4.65625,-2.125 1.28009,-1.4185 1.96875,-3.04783 1.96875,-5.125 l 0,-22.25 c 0,-1.01319 -0.26288,-1.85322 -0.90625,-2.5625 -0.64035,-0.70916 -1.49198,-1.06244 -2.40625,-1.0625 -0.91486,0 -1.60965,0.35358 -2.25,1.0625 -0.64035,0.70934 -1.0625,1.54925 -1.0625,2.5625 l 0,15.03125 c 0,1.82382 -0.005,3.25617 -0.15625,4.21875 -0.1814,0.96264 -0.65805,1.50012 -1.34375,1.5 -0.36885,1.2e-4 -0.9056,-0.2896 -1.5,-0.59375 -0.55025,-0.35494 -1.25609,-0.66142 -2.125,-1.21875 l -31.4375,-21.375 c -0.50188,-0.35434 -1.01591,-0.67225 -1.65625,-0.875 -0.59258,-0.20256 -1.17275,-0.3125 -1.8125,-0.3125 -0.2328,0 -0.46188,-0.0204 -0.6875,-0.0312 z m 63.125,0 c -0.18972,-0.0108 -0.3809,-0.012 -0.59375,0.0312 -1.27586,0.26001 -2.47728,1.03001 -3.4375,2.09375 -1.23534,1.41862 -1.96875,3.36051 -1.96875,5.4375 l 0,21.96875 c 0,1.01337 0.42034,1.85322 1.0625,2.5625 0.64035,0.70934 1.33513,1.0625 2.25,1.0625 0.91426,6e-5 1.76591,-0.35304 2.40625,-1.0625 0.64035,-0.70928 0.90625,-1.54919 0.90625,-2.5625 l 0,-14.90625 c -6.1e-4,-1.82369 0.1311,-3.25611 0.3125,-4.21875 0.1814,-0.96257 0.65744,-1.5 1.34375,-1.5 0.36885,0 0.79532,0.23881 1.34375,0.59375 0.59258,0.30415 1.25608,0.81779 2.125,1.375 l 31.4375,21.21875 c 0.50188,0.35494 1.06185,0.54713 1.65625,0.75 0.64035,0.20256 1.3284,0.3125 1.96875,0.3125 1.87509,6e-5 3.42151,-0.70644 4.65625,-2.125 1.2807,-1.4185 1.96875,-3.04783 1.96875,-5.125 l 0,-22.25 c 0,-1.01319 -0.26348,-1.85322 -0.90625,-2.5625 -0.64034,-0.70916 -1.49138,-1.06244 -2.40625,-1.0625 -0.91487,0 -1.60965,0.35358 -2.25,1.0625 -0.64035,0.70934 -1.0625,1.54925 -1.0625,2.5625 l 0,15.03125 c 0,1.82382 -0.12505,3.25617 -0.3125,4.21875 -0.1814,0.96264 -0.65806,1.50012 -1.34375,1.5 -0.36886,1.2e-4 -0.90561,-0.2896 -1.5,-0.59375 -0.55026,-0.35494 -1.09984,-0.66142 -1.96875,-1.21875 l -31.46875,-21.375 c -0.50187,-0.35434 -1.1415,-0.67225 -1.78125,-0.875 -0.59258,-0.20256 -1.17276,-0.3125 -1.8125,-0.3125 -0.2328,0 -0.43528,-0.0204 -0.625,-0.0312 z m 379.125,0 c -0.19062,-0.0108 -0.38815,-0.012 -0.59375,0.0312 -1.2335,0.26001 -2.3522,1.03001 -3.3125,2.09375 -1.23471,1.41862 -1.78125,3.36051 -1.78125,5.4375 l 0,21.96875 c 0,1.01337 0.11267,1.85322 0.75,2.5625 0.64035,0.70934 1.3352,1.0625 2.25,1.0625 0.9143,6e-5 1.76655,-0.35304 2.40625,-1.0625 0.6404,-0.70928 0.90625,-1.54919 0.90625,-2.5625 l 0,-14.90625 c 0,-1.82369 0.2501,-3.25611 0.4375,-4.21875 0.1814,-0.96257 0.53485,-1.5 1.21875,-1.5 0.3689,0 0.79535,0.23881 1.34375,0.59375 0.5926,0.30415 1.41235,0.81779 2.28125,1.375 l 31.28125,21.21875 c 0.5019,0.35494 1.06185,0.54713 1.65625,0.75 0.6398,0.20256 1.4847,0.3125 2.125,0.3125 1.8751,6e-5 3.2647,-0.70644 4.5,-2.125 1.2801,-1.4185 2.125,-3.04783 2.125,-5.125 l 0,-22.25 c 0,-1.01319 -0.4204,-1.85322 -1.0625,-2.5625 -0.6404,-0.70916 -1.3351,-1.06244 -2.25,-1.0625 -0.9149,0 -1.76655,0.35358 -2.40625,1.0625 -0.6403,0.70934 -0.90625,1.54925 -0.90625,2.5625 l 0,15.03125 c 0,1.82382 -0.28125,3.25617 -0.46875,4.21875 -0.1814,0.96264 -0.5036,1.50012 -1.1875,1.5 -0.3688,1.2e-4 -0.7806,-0.2896 -1.375,-0.59375 -0.5502,-0.35494 -1.22485,-0.66142 -2.09375,-1.21875 l -31.46875,-21.375 c -0.5019,-0.35434 -1.14145,-0.67225 -1.78125,-0.875 -0.5925,-0.20256 -1.32835,-0.3125 -1.96875,-0.3125 -0.2358,0 -0.43438,-0.0204 -0.625,-0.0312 z M 85.6875,432.5937 c -0.91487,0 -1.60965,0.35358 -2.25,1.0625 -0.64035,0.70934 -1.0625,1.54925 -1.0625,2.5625 l 0,25.875 c 0,1.01337 0.42034,1.85322 1.0625,2.5625 0.64035,0.70934 1.33513,1.0625 2.25,1.0625 0.91426,6e-5 1.76591,-0.35304 2.40625,-1.0625 C 88.7341,463.94697 89,463.10706 89,462.09375 l 0,-25.875 c -6.1e-4,-1.01319 -0.26287,-1.85322 -0.90625,-2.5625 -0.64034,-0.70916 -1.49199,-1.06244 -2.40625,-1.0625 z m 152,0 c -1.9664,0 -3.69538,0.64312 -5.25,1.65625 -1.55461,1.01331 -2.96502,2.12881 -4.0625,3.75 -1.09748,1.57063 -1.81185,3.46168 -2.40625,5.4375 -0.55025,1.92522 -0.90625,3.94985 -0.90625,5.875 0,1.87449 0.36023,3.63729 0.90625,5.5625 0.55026,1.92528 1.24383,3.55454 2.25,5.125 1.05153,1.57063 2.28669,2.99858 3.75,4.0625 1.46331,1.01325 3.09427,1.55491 4.96875,1.65625 l 31.3125,0 c 1.96639,6e-5 3.72663,-0.36151 5.28125,-1.375 1.55461,-1.01319 2.96501,-2.33567 4.0625,-3.90625 1.09748,-1.62118 1.8572,-3.35603 2.40625,-5.28125 0.59257,-1.97577 0.90625,-3.91859 0.90625,-5.84375 0,-1.87448 -0.36023,-3.79354 -0.90625,-5.71875 -0.55026,-1.9251 -1.22912,-3.71061 -2.28125,-5.28125 -1.00618,-1.57045 -2.2867,-2.89288 -3.75,-3.90625 -1.46392,-1.0638 -3.09427,-1.71104 -4.96875,-1.8125 l -31.3125,0 z m 56.4375,0 c -0.91487,0 -1.7659,0.35358 -2.40625,1.0625 -0.64035,0.70934 -0.90625,1.54925 -0.90625,2.5625 0,0.50672 0.12505,1.04414 0.3125,1.5 0.1814,0.40513 0.3156,0.67667 0.59375,1.03125 l 16.5625,24.84375 c 0.82296,1.16532 1.96746,2.0602 3.15625,2.71875 1.23474,0.65867 2.56549,0.90625 3.9375,0.90625 1.4633,6e-5 2.82776,-0.19673 4.0625,-0.90625 1.2807,-0.75995 2.33329,-1.8661 3.15625,-3.03125 l 16.5625,-24.65625 0,-0.15625 c 0.45955,-0.5575 0.74939,-1.33809 0.75,-2.25 -6.1e-4,-1.01319 -0.26288,-1.85322 -0.90625,-2.5625 -0.64035,-0.70916 -1.49198,-1.06244 -2.40625,-1.0625 -1.00617,0 -1.8762,0.43179 -2.5625,1.34375 L 317.9375,457.7187 c -0.2721,0.40573 -0.71566,0.8684 -1.21875,1.375 -0.45955,0.45592 -0.84067,0.59375 -1.34375,0.59375 -0.50188,6e-5 -1.02817,-0.13783 -1.53125,-0.59375 -0.45956,-0.50672 -0.86703,-0.96957 -1.1875,-1.375 L 296.6875,433.9375 c -0.64035,-0.96251 -1.43377,-1.34369 -2.53125,-1.34375 l -0.0312,0 z m 104.625,0 c -0.91487,0 -1.7659,0.35358 -2.40625,1.0625 -0.64035,0.70934 -0.90625,1.54925 -0.90625,2.5625 0,0.96264 0.155,1.82203 0.75,2.53125 0.59258,0.65861 1.42704,0.96122 2.25,1.0625 l 20.46875,0 0,22.28125 c 0,1.01337 0.41973,1.85322 1.0625,2.5625 0.63974,0.70934 1.33574,1.0625 2.25,1.0625 0.91487,6e-5 1.60965,-0.35304 2.25,-1.0625 0.64035,-0.70928 1.0625,-1.54919 1.0625,-2.5625 l 0,-22.28125 20.3125,0 c 0.91426,1.8e-4 1.7659,-0.35298 2.40625,-1.0625 0.64035,-0.70916 0.90625,-1.51806 0.90625,-2.53125 -6e-4,-1.01319 -0.26288,-1.85322 -0.90625,-2.5625 -0.64035,-0.70916 -1.49199,-1.06244 -2.40625,-1.0625 l -47.09375,0 z m 63.65625,0 c -0.91426,0 -1.7659,0.35358 -2.40625,1.0625 -0.64035,0.70934 -0.90625,1.54925 -0.90625,2.5625 l 0,25.875 c 0,1.01337 0.26288,1.85322 0.90625,2.5625 0.64035,0.70934 1.49199,1.0625 2.40625,1.0625 0.91487,6e-5 1.76591,-0.35304 2.40625,-1.0625 0.64035,-0.70928 0.75,-1.54919 0.75,-2.5625 l 0,-25.875 c 0,-1.01319 -0.11267,-1.85322 -0.75,-2.5625 -0.64034,-0.70916 -1.49138,-1.06244 -2.40625,-1.0625 z m 25.75,0 c -1.96639,0 -3.88288,0.64312 -5.4375,1.65625 -1.55521,1.01331 -2.80877,2.12881 -3.90625,3.75 -1.09748,1.57063 -1.9681,3.46168 -2.5625,5.4375 -0.55025,1.92522 -0.75,3.94985 -0.75,5.875 0,1.87449 0.20277,3.63729 0.75,5.5625 0.55026,1.92528 1.40068,3.55454 2.40625,5.125 1.05213,1.57063 2.1617,2.99858 3.625,4.0625 1.46331,1.01325 3.21866,1.55491 5.09375,1.65625 l 31.3125,0 c 1.9664,6e-5 3.72663,-0.36151 5.28125,-1.375 1.55521,-1.01319 2.96502,-2.33567 4.0625,-3.90625 1.09748,-1.62118 1.85782,-3.35603 2.40625,-5.28125 0.59258,-1.97577 0.90625,-3.91859 0.90625,-5.84375 0,-1.87448 -0.35962,-3.79354 -0.90625,-5.71875 -0.55025,-1.9251 -1.19847,-3.71061 -2.25,-5.28125 -1.00617,-1.57045 -2.47419,-2.89288 -3.9375,-3.90625 -1.4633,-1.0638 -3.06241,-1.71104 -4.9375,-1.8125 l -31.15625,0 z m 125.21875,0 c -1.2801,0 -2.37065,0.34904 -3.46875,0.90625 -1.0975,0.50671 -2.1764,1.1819 -3,2.09375 -0.8229,0.91196 -1.46625,1.94031 -1.96875,3.15625 -0.4595,1.21582 -0.59375,2.64406 -0.59375,4.0625 -6e-4,1.41862 0.13425,2.72156 0.59375,3.9375 0.5019,1.21588 1.14585,2.08815 1.96875,3 0.823,0.91191 1.9025,1.69273 3,2.25 1.0975,0.50671 2.18865,0.90625 3.46875,0.90625 l 38.0625,0 c 0.6857,6e-5 1.3094,0.19273 1.8125,0.75 0.5018,0.55751 0.59375,1.15818 0.59375,1.96875 0,0.76001 -0.0861,1.53667 -0.59375,2.09375 -0.5019,0.50672 -1.1268,0.75 -1.8125,0.75 l -41.84375,0 c -0.9149,6e-5 -1.76595,0.35303 -2.40625,1.0625 -0.6404,0.70934 -0.90625,1.54931 -0.90625,2.5625 0,1.01337 0.26345,1.85322 0.90625,2.5625 0.6403,0.70934 1.49135,1.0625 2.40625,1.0625 l 41.6875,0 c 1.2801,6e-5 2.37125,-0.27483 3.46875,-0.78125 1.1428,-0.50671 2.1771,-1.18178 3,-2.09375 0.823,-0.91184 1.3554,-1.94025 1.8125,-3.15625 0.5019,-1.21576 0.75,-2.64388 0.75,-4.0625 0,-1.4185 -0.2457,-2.56525 -0.75,-3.78125 -0.4595,-1.26642 -0.9895,-2.40048 -1.8125,-3.3125 -0.8235,-0.91197 -1.8572,-1.7434 -3,-2.25 -1.0975,-0.55751 -2.18865,-0.75 -3.46875,-0.75 l -38.0625,0 c -0.6857,0 -1.264,-0.34905 -1.8125,-0.90625 -0.5018,-0.55751 -0.75,-1.05255 -0.75,-1.8125 0,-0.81056 0.2451,-1.4309 0.75,-1.9375 0.5503,-0.5569 1.1268,-1.06238 1.8125,-1.0625 l 41.84375,0 c 0.9143,1.8e-4 1.76595,-0.35298 2.40625,-1.0625 0.6404,-0.70916 0.90625,-1.51806 0.90625,-2.53125 -6e-4,-1.01319 -0.26895,-1.85322 -0.90625,-2.5625 -0.6403,-0.70916 -1.49195,-1.06244 -2.40625,-1.0625 l -41.6875,0 z m -374.15625,7.21875 27.53125,0 c 1.55461,1.8e-4 3.05633,0.56014 4.0625,1.21875 1.00557,0.60805 1.70156,1.1819 2.25,2.09375 0.59258,0.91196 1.03614,2.04166 1.21875,3.15625 0.22977,1.06386 0.28125,2.11928 0.28125,3.03125 0,0.91191 -0.0515,1.72928 -0.28125,2.84375 -0.1814,1.06398 -0.62436,2.08821 -1.21875,3 -0.55026,0.91209 -1.24443,1.62264 -2.25,2.28125 -1.00617,0.60806 -2.50789,1.03125 -4.0625,1.03125 l -27.53125,0 c -1.60057,6e-5 -3.08818,-0.42331 -4.09375,-1.03125 -0.96082,-0.65854 -1.6556,-1.36922 -2.25,-2.28125 -0.55025,-0.91173 -0.95893,-1.93608 -1.1875,-3 -0.1814,-1.11441 -0.15625,-1.93184 -0.15625,-2.84375 0,-0.91191 0.005,-1.96745 0.15625,-3.03125 0.22978,-1.11453 0.63846,-2.24435 1.1875,-3.15625 0.59258,-0.91179 1.28918,-1.4857 2.25,-2.09375 1.00557,-0.65855 2.49318,-1.21863 4.09375,-1.21875 z m 250.28125,0 27.6875,0 c 1.55462,1.8e-4 2.74443,0.56014 3.75,1.21875 1.00617,0.60805 1.88845,1.1819 2.4375,2.09375 0.59258,0.91196 0.84863,2.04166 1.03125,3.15625 0.22977,1.06386 0.46875,2.11928 0.46875,3.03125 0,0.91191 -0.23898,1.72928 -0.46875,2.84375 -0.18141,1.06398 -0.43747,2.08821 -1.03125,3 -0.55026,0.91209 -1.43133,1.62264 -2.4375,2.28125 -1.00618,0.60806 -2.19538,1.03125 -3.75,1.03125 l -27.6875,0 c -1.60057,6e-5 -2.90008,-0.42331 -3.90625,-1.03125 -0.96022,-0.65854 -1.68686,-1.36922 -2.28125,-2.28125 -0.55026,-0.91173 -0.95893,-1.93608 -1.1875,-3 -0.1814,-1.11441 -0.3125,-1.93184 -0.3125,-2.84375 0,-0.91191 0.1311,-1.96745 0.3125,-3.03125 0.22977,-1.11453 0.63845,-2.24435 1.1875,-3.15625 0.59258,-0.91179 1.32103,-1.4857 2.28125,-2.09375 1.00617,-0.65855 2.30568,-1.21863 3.90625,-1.21875 z"
       style="fill:#555753;fill-opacity:1;fill-rule:evenodd;stroke:none;filter:url(#filter5231)" />
  </g>
  <g
     transform="matrix(0.97588026,0,0,0.97588026,-256.01462,-95.811547)"
     id="g3424">
    <path
       id="path3426"
       style="fill:#ebd63e;fill-opacity:1;fill-rule:nonzero;stroke:#000000;stroke-width:1.07716823;stroke-miterlimit:4;stroke-dasharray:none"
       d="m 618.07971,203.33944 77.53131,-77.52509 c 4.46176,-4.46637 11.70384,-4.46637 16.17144,0 l 16.09934,16.09892 -20.42276,20.42311 c -4.74622,-1.60369 -10.18801,-0.52824 -13.97174,3.25564 -3.80126,3.80714 -4.86896,9.29553 -3.22649,14.05747 l -19.68239,19.68202 c -4.76181,-1.64074 -10.25621,-0.57822 -14.05941,3.23064 -5.31515,5.31346 -5.31515,13.92477 0,19.24168 5.31709,5.31776 13.92886,5.31776 19.2479,0 3.99805,-4.0019 4.98588,-9.87376 2.96152,-14.79943 l 18.35555,-18.35581 0.002,48.30367 c -1.29566,0.64371 -2.51924,1.49855 -3.59863,2.574 -5.31515,5.31345 -5.31515,13.92477 0,19.24598 5.31709,5.31518 13.93276,5.31518 19.24206,0 5.31514,-5.32121 5.31514,-13.93253 0,-19.24598 -1.3132,-1.3107 -2.83293,-2.30256 -4.45397,-2.96954 l 0,-48.75349 c 1.62104,-0.66268 3.13882,-1.6485 4.45397,-2.96954 4.02727,-4.02086 4.99561,-9.93063 2.93228,-14.87526 l 20.13052,-20.13443 53.16116,53.15696 c 4.46762,4.46981 4.46762,11.71183 0,16.17734 l -77.53129,77.52768 c -4.46371,4.46551 -11.70384,4.46551 -16.17339,0 l -77.16864,-77.16747 c -4.46567,-4.46724 -4.46567,-11.71356 0,-16.17907"
       inkscape:connector-curvature="0" />
    <path
       style="fill:#f03c2e;fill-opacity:1;fill-rule:nonzero;stroke:#000000;stroke-width:1.07716823;stroke-miterlimit:4;stroke-dasharray:none"
       d="m 868.24915,156.80836 c -5.20006,0 -8.20045,2.82304 -8.20045,8.01671 0,5.20143 3.00039,8.22698 8.20045,8.22698 5.29015,0 8.30522,-3.02555 8.30522,-8.22698 0,-5.19367 -3.01507,-8.01671 -8.30522,-8.01671 z m 25.59682,8.67163 c -1.00296,9.94097 -4.20656,13.96786 -12.23514,14.8813 l 0,8.12184 6.39263,0 c 0.73249,0 0.7336,0.37055 0.7336,0.91689 l 0,23.89418 c 0,10.31065 4.10705,14.67103 14.95987,14.67103 5.20105,0 10.93137,-1.72778 14.85501,-3.64169 l -2.46275,-8.01672 c -2.18925,0.82037 -4.83116,1.44082 -7.38823,1.44082 -4.92237,0 -6.20928,-2.0854 -6.20928,-7.46693 l 0,-21.79758 13.59751,0 0,-9.11715 -12.86395,0 c -0.7304,0 -0.73356,-0.28092 -0.73356,-0.91688 l 0,-12.96911 -8.64571,0 z m -67.80398,14.82873 c -13.95181,0 -20.88093,7.22392 -20.88093,17.71123 0,6.74997 3.365,11.48692 7.83356,13.67573 -2.18918,2.00612 -4.01793,3.7451 -5.65906,5.47546 -1.64431,1.73467 -2.6461,3.5469 -2.6461,5.55474 0,2.4637 0.99759,4.75333 4.00847,6.02525 -3.19205,3.01521 -5.00404,5.19626 -5.00404,9.30156 0,7.2041 6.28575,11.39644 22.79345,11.39644 15.87052,0 25.099,-5.93562 25.099,-16.42724 0,-12.12461 -9.3186,-12.56496 -25.099,-13.57146 l -8.93395,-0.54979 3.0129,-4.84726 c 1.64003,0.45586 4.28311,0.83847 7.20478,0.83847 11.48907,0 19.44001,-5.93649 19.44001,-16.06015 0,-4.19492 -1.74081,-7.12396 -3.37976,-9.22228 l 8.3838,-0.6282 0,-7.75561 -17.78933,0 c -2.09804,-0.55065 -4.46135,-0.91689 -8.3838,-0.91689 z m 31.4654,0.0259 -1.02182,7.38765 4.92548,1.7295 c 0.91494,0.27145 1.20526,0.91172 1.20526,1.91219 l 0,26.82839 c -9e-5,1.37102 -0.18972,1.64936 -1.46716,1.83377 l -4.66358,0.62906 0,7.20497 26.01604,0 0,-7.20497 -4.6635,-0.62906 c -1.37176,-0.18441 -1.46718,-0.37227 -1.46718,-1.83377 l 0,-37.85773 -18.86354,0 z m -30.65326,9.01202 c 5.19796,0 8.30524,2.82132 8.30524,8.20027 -8e-5,4.74643 -3.46352,7.75561 -8.56723,7.75561 -6.02158,0 -8.4886,-3.10397 -8.4886,-7.57206 0,-5.9296 3.73297,-8.38382 8.75059,-8.38382 z m -10.03431,41.86652 13.30927,0.91688 c 4.38054,0.27489 7.85981,0.45586 7.85981,3.37972 -8e-5,4.91879 -7.20696,5.26606 -12.49714,5.26606 -6.38636,0 -11.02998,-1.09612 -11.02998,-4.74212 9e-5,-1.82602 1.17056,-3.36335 2.35804,-4.82054 z"
       id="path3428"
       inkscape:connector-curvature="0" />
    <g
       id="g3430"
       transform="matrix(0.00715638,-0.00715638,-0.00715638,-0.00715638,721.34371,285.98237)"
       style="fill:#000000;stroke:none">
      <path
         id="path3432"
         d="m 7840,5740 c -378,-30 -695,-166 -931,-400 -243,-241 -359,-535 -359,-908 0,-558 229,-948 740,-1257 130,-78 307,-163 613,-295 417,-179 572,-264 671,-370 122,-131 156,-340 79,-500 -15,-31 -54,-83 -89,-118 -118,-119 -304,-182 -535,-182 -390,0 -681,160 -915,506 -32,46 -61,84 -65,84 -9,0 -770,-439 -786,-454 -10,-9 -2,-30 37,-94 304,-512 779,-812 1421,-898 168,-23 483,-22 644,0 404,57 707,191 942,419 250,241 373,553 373,944 0,250 -41,445 -134,638 -64,132 -128,221 -238,333 -211,214 -484,376 -1029,610 -412,177 -550,253 -641,350 -87,93 -124,202 -116,338 7,108 37,181 103,252 95,103 205,146 375,145 193,0 318,-50 445,-178 45,-44 103,-115 130,-158 31,-49 54,-76 62,-73 26,11 753,481 753,488 0,4 -37,62 -82,130 -96,144 -269,324 -388,403 -220,146 -455,221 -765,244 -152,12 -172,12 -315,1 z"
         inkscape:connector-curvature="0" />
      <path
         id="path3434"
         d="m 4727,3923 -3,-1768 -22,-83 c -29,-109 -63,-174 -123,-234 -84,-84 -192,-119 -372,-120 -257,-1 -411,108 -590,414 -29,48 -55,87 -58,86 -4,-2 -185,-111 -402,-242 l -395,-240 30,-60 c 179,-357 489,-627 862,-751 394,-131 900,-119 1271,30 445,180 706,552 775,1105 6,56 10,681 10,1857 l 0,1773 -490,0 -489,0 -4,-1767 z"
         inkscape:connector-curvature="0" />
    </g>
  </g>
  <g
     transform="matrix(0.97588026,0,0,0.97588026,-256.01462,-58.731421)"
     id="g3436">
    <path
       inkscape:connector-curvature="0"
       d="m 915.20276,367.49126 -77.53131,77.52509 c -4.46176,4.46637 -11.70384,4.46637 -16.17144,0 l -16.09934,-16.09892 20.42277,-20.42311 c 4.74621,1.60368 10.188,0.52824 13.97173,-3.25564 3.80126,-3.80714 4.86896,-9.29553 3.22649,-14.05747 l 19.6824,-19.68202 c 4.7618,1.64074 10.2562,0.57822 14.0594,-3.23064 5.31515,-5.31346 5.31515,-13.92477 0,-19.24168 -5.31709,-5.31776 -13.92886,-5.31776 -19.2479,0 -3.99805,4.0019 -4.98588,9.87376 -2.96152,14.79943 l -18.35555,18.35581 -0.002,-48.30453 c 1.29566,-0.64285 2.51924,-1.49769 3.59863,-2.57314 5.31515,-5.31345 5.31515,-13.92563 0,-19.24598 -5.31709,-5.31518 -13.93275,-5.31518 -19.24206,0 -5.31514,5.32035 -5.31514,13.93253 0,19.24598 1.3132,1.3107 2.83293,2.30256 4.45397,2.96868 l 0,48.75435 c -1.62104,0.66268 -3.13882,1.6485 -4.45397,2.96954 -4.02727,4.02086 -4.99561,9.93063 -2.93228,14.87526 l -20.13052,20.13443 -53.16115,-53.15696 c -4.46762,-4.46981 -4.46762,-11.71183 0,-16.17734 l 77.53128,-77.52768 c 4.46371,-4.46551 11.70384,-4.46551 16.17339,0 l 77.1689,77.16747 c 4.46567,4.46724 4.46567,11.71356 0,16.17907"
       style="fill:#ebd63e;fill-opacity:1;fill-rule:nonzero;stroke:#000000;stroke-width:1.07716823;stroke-miterlimit:4;stroke-dasharray:none"
       id="path3438" />
    <path
       inkscape:connector-curvature="0"
       id="path3440"
       d="m 665.03333,414.02234 c 5.20006,0 8.20044,-2.82304 8.20044,-8.01671 0,-5.20143 -3.00038,-8.22698 -8.20044,-8.22698 -5.29016,0 -8.30523,3.02555 -8.30523,8.22698 0,5.19367 3.01507,8.01671 8.30523,8.01671 z m -25.59683,-8.67163 c 1.00296,-9.94097 4.20656,-13.96786 12.23514,-14.8813 l 0,-8.12184 -6.39263,0 c -0.73249,0 -0.7336,-0.37141 -0.7336,-0.91689 l 0,-23.89418 c 0,-10.31065 -4.10705,-14.67103 -14.95986,-14.67103 -5.20106,0 -10.93138,1.72778 -14.85502,3.64169 l 2.46275,8.01672 c 2.18925,-0.82037 4.83116,-1.44082 7.38823,-1.44082 4.92237,0 6.20928,2.0854 6.20928,7.46693 l 0,21.79758 -13.59751,0 0,9.11715 12.86395,0 c 0.7304,0 0.73356,0.28092 0.73356,0.91688 l 0,12.96911 8.64571,0 z m 67.80398,-14.82873 c 13.95181,0 20.88093,-7.22392 20.88093,-17.71123 0,-6.74997 -3.365,-11.48692 -7.83356,-13.67573 2.18918,-2.00612 4.01793,-3.74596 5.65906,-5.47546 1.64431,-1.73467 2.6461,-3.5469 2.6461,-5.55474 0,-2.4637 -0.99759,-4.75333 -4.00846,-6.02611 3.19204,-3.01435 5.00403,-5.1954 5.00403,-9.3007 0,-7.2041 -6.28575,-11.39644 -22.79345,-11.39644 -15.87052,0 -25.09899,5.93562 -25.09899,16.42724 0,12.12461 9.31859,12.56496 25.09899,13.57146 l 8.93395,0.54979 -3.01289,4.84726 c -1.64004,-0.45586 -4.28312,-0.83847 -7.20479,-0.83847 -11.48906,0 -19.44001,5.93649 -19.44001,16.06015 0,4.19492 1.74081,7.12395 3.37976,9.22228 l -8.3838,0.6282 0,7.75561 17.78933,0 c 2.09804,0.55065 4.46135,0.91689 8.3838,0.91689 z m -31.4654,-0.0258 1.02182,-7.38765 -4.92548,-1.7295 c -0.91494,-0.27145 -1.20525,-0.91172 -1.20525,-1.91219 l 0,-26.82839 c 8e-5,-1.37102 0.18971,-1.64936 1.46715,-1.83377 l 4.66358,-0.62906 0,-7.20497 -26.01604,0 0,7.20497 4.6635,0.62906 c 1.37177,0.18441 1.46718,0.37227 1.46718,1.83377 l 0,37.85773 18.86354,0 z m 30.65326,-9.01202 c -5.19796,0 -8.30524,-2.82132 -8.30524,-8.20027 8e-5,-4.74643 3.46352,-7.75561 8.56723,-7.75561 6.02158,0 8.4886,3.10397 8.4886,7.57206 0,5.9296 -3.73297,8.38382 -8.75059,8.38382 z m 10.03431,-41.86652 -13.30927,-0.91688 c -4.38053,-0.27489 -7.85981,-0.45586 -7.85981,-3.37972 8e-5,-4.91879 7.20696,-5.26606 12.49714,-5.26606 6.38636,0 11.02998,1.09612 11.02998,4.74212 -9e-5,1.82602 -1.17056,3.36335 -2.35804,4.82054 z"
       style="fill:#f03c2e;fill-opacity:1;fill-rule:nonzero;stroke:#000000;stroke-width:1.07716823;stroke-miterlimit:4;stroke-dasharray:none" />
    <g
       style="fill:#000000;stroke:none"
       transform="matrix(-0.00715638,0.00715638,0.00715638,0.00715638,811.93876,284.84833)"
       id="g3442">
      <path
         inkscape:connector-curvature="0"
         d="m 7840,5740 c -378,-30 -695,-166 -931,-400 -243,-241 -359,-535 -359,-908 0,-558 229,-948 740,-1257 130,-78 307,-163 613,-295 417,-179 572,-264 671,-370 122,-131 156,-340 79,-500 -15,-31 -54,-83 -89,-118 -118,-119 -304,-182 -535,-182 -390,0 -681,160 -915,506 -32,46 -61,84 -65,84 -9,0 -770,-439 -786,-454 -10,-9 -2,-30 37,-94 304,-512 779,-812 1421,-898 168,-23 483,-22 644,0 404,57 707,191 942,419 250,241 373,553 373,944 0,250 -41,445 -134,638 -64,132 -128,221 -238,333 -211,214 -484,376 -1029,610 -412,177 -550,253 -641,350 -87,93 -124,202 -116,338 7,108 37,181 103,252 95,103 205,146 375,145 193,0 318,-50 445,-178 45,-44 103,-115 130,-158 31,-49 54,-76 62,-73 26,11 753,481 753,488 0,4 -37,62 -82,130 -96,144 -269,324 -388,403 -220,146 -455,221 -765,244 -152,12 -172,12 -315,1 z"
         id="path3444" />
      <path
         inkscape:connector-curvature="0"
         d="m 4727,3923 -3,-1768 -22,-83 c -29,-109 -63,-174 -123,-234 -84,-84 -192,-119 -372,-120 -257,-1 -411,108 -590,414 -29,48 -55,87 -58,86 -4,-2 -185,-111 -402,-242 l -395,-240 30,-60 c 179,-357 489,-627 862,-751 394,-131 900,-119 1271,30 445,180 706,552 775,1105 6,56 10,681 10,1857 l 0,1773 -490,0 -489,0 -4,-1767 z"
         id="path3446" />
    </g>
  </g>
  <g
     transform="matrix(0.97588026,0,0,0.97588026,-256.01462,-19.158068)"
     id="g3448">
    <path
       inkscape:connector-curvature="0"
       d="m 618.17749,497.44687 77.53131,-77.52595 c 4.46176,-4.46551 11.70384,-4.46551 16.17144,0 l 16.09934,16.09979 -20.42276,20.42224 c -4.74622,-1.60368 -10.18801,-0.52738 -13.97174,3.25564 -3.80126,3.80714 -4.86896,9.29639 -3.22649,14.05747 l -19.68239,19.68288 c -4.76181,-1.64074 -10.25621,-0.57908 -14.05941,3.22978 -5.31515,5.31346 -5.31515,13.92564 0,19.24254 5.31709,5.3169 13.92886,5.3169 19.2479,0 3.99805,-4.0019 4.98588,-9.87462 2.96152,-14.79943 l 18.35555,-18.35581 0.002,48.30367 c -1.29566,0.64285 -2.51924,1.49856 -3.59863,2.574 -5.31515,5.31346 -5.31515,13.92477 0,19.24598 5.31709,5.31518 13.93276,5.31518 19.24206,0 5.31514,-5.32121 5.31514,-13.93252 0,-19.24598 -1.3132,-1.31156 -2.83293,-2.30342 -4.45397,-2.96954 l 0,-48.75349 c 1.62104,-0.66268 3.13882,-1.6485 4.45397,-2.96954 4.02727,-4.02172 4.99561,-9.93063 2.93228,-14.87612 l 20.13052,-20.13443 53.16116,53.15782 c 4.46762,4.46895 4.46762,11.71097 0,16.17734 l -77.53129,77.52682 c -4.46371,4.46551 -11.70384,4.46551 -16.17339,0 l -77.1689,-77.16661 c -4.46566,-4.4681 -4.46566,-11.71356 0,-16.17907"
       style="fill:#ebd63e;fill-opacity:1;fill-rule:nonzero;stroke:#000000;stroke-width:1.07716823;stroke-miterlimit:4;stroke-dasharray:none"
       id="path3450" />
    <path
       inkscape:connector-curvature="0"
       id="path3452"
       d="m 868.34693,450.91493 c -5.20006,0 -8.20045,2.8239 -8.20045,8.01757 0,5.20057 3.00039,8.22612 8.20045,8.22612 5.29015,0 8.30522,-3.02555 8.30522,-8.22612 0,-5.19367 -3.01507,-8.01757 -8.30522,-8.01757 z m 25.59682,8.67249 c -1.00296,9.94097 -4.20656,13.967 -12.23514,14.8813 l 0,8.12185 6.39263,0 c 0.7325,0 0.7336,0.37054 0.7336,0.91688 l 0,23.89332 c 0,10.31151 4.10705,14.67189 14.95987,14.67189 5.20105,0 10.93137,-1.72778 14.85501,-3.64169 l -2.46274,-8.01672 c -2.18926,0.82037 -4.83117,1.44082 -7.38824,1.44082 -4.92237,0 -6.20928,-2.08539 -6.20928,-7.46693 l 0,-21.79757 13.59752,0 0,-9.11802 -12.86396,0 c -0.7304,0 -0.73356,-0.28092 -0.73356,-0.91688 l 0,-12.96825 -8.64571,0 z m -67.80398,14.82873 c -13.95181,0 -20.88093,7.22392 -20.88093,17.71037 0,6.74997 3.365,11.48692 7.83356,13.67659 -2.18918,2.00526 -4.01793,3.7451 -5.65906,5.47546 -1.64431,1.73467 -2.6461,3.54604 -2.6461,5.55388 0,2.4637 0.99759,4.75419 4.00847,6.02611 -3.19205,3.01521 -5.00404,5.19626 -5.00404,9.3007 0,7.20497 6.28575,11.39644 22.79345,11.39644 15.87053,0 25.099,-5.93562 25.099,-16.42638 0,-12.12547 -9.31859,-12.56582 -25.099,-13.57146 l -8.93394,-0.54979 3.01289,-4.84725 c 1.64003,0.45585 4.28311,0.83846 7.20478,0.83846 11.48907,0 19.44002,-5.93649 19.44002,-16.06014 0,-4.19493 -1.74082,-7.12396 -3.37977,-9.22229 l 8.3838,-0.62906 0,-7.75475 -17.78933,0 c -2.09804,-0.55151 -4.46135,-0.91689 -8.3838,-0.91689 z m 31.4654,0.0258 -1.02182,7.38852 4.92548,1.72864 c 0.91494,0.27144 1.20526,0.91171 1.20526,1.91305 l 0,26.82838 c -9e-5,1.37016 -0.18972,1.64936 -1.46716,1.83377 l -4.66358,0.62821 0,7.20496 26.01604,0 0,-7.20496 -4.66349,-0.62821 c -1.37177,-0.18441 -1.46719,-0.37227 -1.46719,-1.83377 l 0,-37.85859 -18.86354,0 z m -30.65326,9.01289 c 5.19796,0 8.30524,2.82131 8.30524,8.20026 -8e-5,4.74644 -3.46351,7.75475 -8.56723,7.75475 -6.02158,0 -8.4886,-3.10397 -8.4886,-7.5712 0,-5.92959 3.73297,-8.38381 8.75059,-8.38381 z m -10.03431,41.86651 13.30927,0.91688 c 4.38054,0.2749 7.85982,0.45586 7.85982,3.37973 -9e-5,4.91792 -7.20697,5.26606 -12.49715,5.26606 -6.38635,0 -11.02998,-1.09613 -11.02998,-4.74213 9e-5,-1.82687 1.17056,-3.36421 2.35804,-4.82054 z"
       style="fill:#f03c2e;fill-opacity:1;fill-rule:nonzero;stroke:#000000;stroke-width:1.07716823;stroke-miterlimit:4;stroke-dasharray:none" />
    <g
       style="fill:#000000;stroke:none"
       transform="matrix(0.00715638,-0.00715638,-0.00715638,-0.00715638,721.44149,580.0898)"
       id="g3454">
      <path
         inkscape:connector-curvature="0"
         d="m 7840,5740 c -378,-30 -695,-166 -931,-400 -243,-241 -359,-535 -359,-908 0,-558 229,-948 740,-1257 130,-78 307,-163 613,-295 417,-179 572,-264 671,-370 122,-131 156,-340 79,-500 -15,-31 -54,-83 -89,-118 -118,-119 -304,-182 -535,-182 -390,0 -681,160 -915,506 -32,46 -61,84 -65,84 -9,0 -770,-439 -786,-454 -10,-9 -2,-30 37,-94 304,-512 779,-812 1421,-898 168,-23 483,-22 644,0 404,57 707,191 942,419 250,241 373,553 373,944 0,250 -41,445 -134,638 -64,132 -128,221 -238,333 -211,214 -484,376 -1029,610 -412,177 -550,253 -641,350 -87,93 -124,202 -116,338 7,108 37,181 103,252 95,103 205,146 375,145 193,0 318,-50 445,-178 45,-44 103,-115 130,-158 31,-49 54,-76 62,-73 26,11 753,481 753,488 0,4 -37,62 -82,130 -96,144 -269,324 -388,403 -220,146 -455,221 -765,244 -152,12 -172,12 -315,1 z"
         id="path3456" />
      <path
         inkscape:connector-curvature="0"
         d="m 4727,3923 -3,-1768 -22,-83 c -29,-109 -63,-174 -123,-234 -84,-84 -192,-119 -372,-120 -257,-1 -411,108 -590,414 -29,48 -55,87 -58,86 -4,-2 -185,-111 -402,-242 l -395,-240 30,-60 c 179,-357 489,-627 862,-751 394,-131 900,-119 1271,30 445,180 706,552 775,1105 6,56 10,681 10,1857 l 0,1773 -490,0 -489,0 -4,-1767 z"
         id="path3458" />
    </g>
  </g>
  <g
     transform="matrix(0.97588026,0,0,0.97588026,-256.01462,17.921242)"
     id="g3460">
    <path
       id="path3462"
       style="fill:#ebd63e;fill-opacity:1;fill-rule:nonzero;stroke:#000000;stroke-width:1.07716823;stroke-miterlimit:4;stroke-dasharray:none"
       d="m 915.30057,661.59869 -77.53131,77.52509 c -4.46176,4.46551 -11.70384,4.46551 -16.17144,0 L 805.49848,723.024 825.92124,702.60175 c 4.74622,1.60369 10.18801,0.52824 13.97174,-3.25563 3.80125,-3.80715 4.86896,-9.29554 3.22649,-14.05748 l 19.68239,-19.68288 c 4.76181,1.64074 10.2562,0.57908 14.05941,-3.22978 5.31514,-5.31346 5.31514,-13.92563 0,-19.24254 -5.31709,-5.3169 -13.92886,-5.3169 -19.2479,0 -3.99805,4.0019 -4.98588,9.87462 -2.96153,14.8003 l -18.35555,18.35494 -0.002,-48.30367 c 1.29566,-0.64285 2.51924,-1.49855 3.59863,-2.574 5.31514,-5.31259 5.31514,-13.92477 0,-19.24598 -5.31709,-5.31518 -13.93276,-5.31518 -19.24206,0 -5.31514,5.32121 -5.31514,13.93339 0,19.24598 1.3132,1.31156 2.83293,2.30342 4.45397,2.96954 l 0,48.75436 c -1.62104,0.66181 -3.13882,1.64763 -4.45397,2.96867 -4.02727,4.02172 -4.99561,9.93149 -2.93228,14.87613 l -20.13052,20.13443 -53.16116,-53.15697 c -4.46762,-4.46981 -4.46762,-11.71183 0,-16.17734 l 77.53129,-77.52767 c 4.46371,-4.46551 11.70384,-4.46551 16.17339,0 l 77.1689,77.1666 c 4.46566,4.4681 4.46566,11.71356 0,16.17993"
       inkscape:connector-curvature="0" />
    <path
       style="fill:#f03c2e;fill-opacity:1;fill-rule:nonzero;stroke:#000000;stroke-width:1.07716823;stroke-miterlimit:4;stroke-dasharray:none"
       d="m 665.13113,708.12978 c 5.20006,0 8.20045,-2.82305 8.20045,-8.01672 0,-5.20143 -3.00039,-8.22698 -8.20045,-8.22698 -5.29015,0 -8.30522,3.02555 -8.30522,8.22698 0,5.19367 3.01507,8.01672 8.30522,8.01672 z m -25.59682,-8.6725 c 1.00296,-9.94097 4.20656,-13.967 12.23514,-14.88043 l 0,-8.12185 -6.39264,0 c -0.73249,0 -0.73359,-0.37141 -0.73359,-0.91775 l 0,-23.89331 c 0,-10.31152 -4.10705,-14.6719 -14.95987,-14.6719 -5.20105,0 -10.93137,1.72864 -14.85501,3.64169 l 2.46274,8.01758 c 2.18926,-0.82123 4.83117,-1.44168 7.38824,-1.44168 4.92237,0 6.20928,2.0854 6.20928,7.46693 l 0,21.79844 -13.59752,0 0,9.11715 12.86396,0 c 0.7304,0 0.73356,0.28093 0.73356,0.91689 l 0,12.96824 8.64571,0 z m 67.80398,-14.82873 c 13.95181,0 20.88093,-7.22306 20.88093,-17.71037 0,-6.74997 -3.365,-11.48692 -7.83356,-13.67659 2.18917,-2.00526 4.01793,-3.7451 5.65906,-5.47546 1.64431,-1.73381 2.64609,-3.54604 2.64609,-5.55388 0,-2.4637 -0.99758,-4.75419 -4.00846,-6.02611 3.19205,-3.01521 5.00404,-5.1954 5.00404,-9.3007 0,-7.20496 -6.28576,-11.39644 -22.79345,-11.39644 -15.87053,0 -25.099,5.93563 -25.099,16.42638 0,12.12547 9.31859,12.56582 25.099,13.57146 l 8.93394,0.55065 -3.01289,4.8464 c -1.64003,-0.45586 -4.28311,-0.83847 -7.20478,-0.83847 -11.48907,0 -19.44002,5.93735 -19.44002,16.06015 0,4.19578 1.74082,7.12482 3.37977,9.22228 l -8.3838,0.62907 0,7.75474 17.78933,0 c 2.09804,0.55151 4.46135,0.91689 8.3838,0.91689 z m -31.4654,-0.0258 1.02182,-7.38851 -4.92548,-1.72864 c -0.91494,-0.27145 -1.20526,-0.91172 -1.20526,-1.91305 l 0,-26.82753 c 9e-5,-1.37102 0.18972,-1.65022 1.46716,-1.83463 l 4.66358,-0.6282 0,-7.20497 -26.01604,0 0,7.20497 4.66349,0.6282 c 1.37177,0.18441 1.46718,0.37227 1.46718,1.83463 l 0,37.85773 18.86355,0 z m 30.65326,-9.01288 c -5.19796,0 -8.30525,-2.82046 -8.30525,-8.20027 9e-5,-4.74643 3.46352,-7.75475 8.56724,-7.75475 6.02158,0 8.48859,3.10397 8.48859,7.5712 0,5.9296 -3.73296,8.38382 -8.75058,8.38382 z m 10.03431,-41.86652 -13.30927,-0.91688 c -4.38054,-0.27403 -7.85982,-0.45586 -7.85982,-3.37973 9e-5,-4.91792 7.20697,-5.26606 12.49715,-5.26606 6.38635,0 11.02997,1.09613 11.02997,4.74213 -8e-5,1.82688 -1.17055,3.36421 -2.35803,4.82054 z"
       id="path3464"
       inkscape:connector-curvature="0" />
    <g
       id="g3466"
       transform="matrix(-0.00715638,0.00715638,0.00715638,0.00715638,812.03657,578.9549)"
       style="fill:#000000;stroke:none">
      <path
         id="path3468"
         d="m 7840,5740 c -378,-30 -695,-166 -931,-400 -243,-241 -359,-535 -359,-908 0,-558 229,-948 740,-1257 130,-78 307,-163 613,-295 417,-179 572,-264 671,-370 122,-131 156,-340 79,-500 -15,-31 -54,-83 -89,-118 -118,-119 -304,-182 -535,-182 -390,0 -681,160 -915,506 -32,46 -61,84 -65,84 -9,0 -770,-439 -786,-454 -10,-9 -2,-30 37,-94 304,-512 779,-812 1421,-898 168,-23 483,-22 644,0 404,57 707,191 942,419 250,241 373,553 373,944 0,250 -41,445 -134,638 -64,132 -128,221 -238,333 -211,214 -484,376 -1029,610 -412,177 -550,253 -641,350 -87,93 -124,202 -116,338 7,108 37,181 103,252 95,103 205,146 375,145 193,0 318,-50 445,-178 45,-44 103,-115 130,-158 31,-49 54,-76 62,-73 26,11 753,481 753,488 0,4 -37,62 -82,130 -96,144 -269,324 -388,403 -220,146 -455,221 -765,244 -152,12 -172,12 -315,1 z"
         inkscape:connector-curvature="0" />
      <path
         id="path3470"
         d="m 4727,3923 -3,-1768 -22,-83 c -29,-109 -63,-174 -123,-234 -84,-84 -192,-119 -372,-120 -257,-1 -411,108 -590,414 -29,48 -55,87 -58,86 -4,-2 -185,-111 -402,-242 l -395,-240 30,-60 c 179,-357 489,-627 862,-751 394,-131 900,-119 1271,30 445,180 706,552 775,1105 6,56 10,681 10,1857 l 0,1773 -490,0 -489,0 -4,-1767 z"
         inkscape:connector-curvature="0" />
    </g>
  </g>
  <g
     id="g3495"
     transform="matrix(0.70710678,0.70710678,-0.70710678,0.70710678,108.94342,9.5243742)">
    <path
       inkscape:connector-curvature="0"
       d="m -40.7049,60.55562 77.53131,-77.52509 c 4.46176,-4.46637 11.70384,-4.46637 16.17144,0 L 69.09719,-0.87055 48.67443,19.55256 C 43.92821,17.94887 38.48642,19.02432 34.70269,22.8082 30.90143,26.61534 29.83373,32.10373 31.4762,36.86567 L 11.79381,56.54769 C 7.032,54.90695 1.5376,55.96947 -2.2656,59.77833 c -5.31515,5.31346 -5.31515,13.92477 0,19.24168 5.31709,5.31776 13.92886,5.31776 19.2479,0 3.99805,-4.0019 4.98588,-9.87376 2.96152,-14.79943 l 18.35555,-18.35581 0.002,48.30367 c -1.29566,0.64371 -2.51924,1.49855 -3.59863,2.574 -5.31515,5.31345 -5.31515,13.92477 0,19.24598 5.31709,5.31518 13.93276,5.31518 19.24206,0 5.31514,-5.32121 5.31514,-13.93253 0,-19.24598 -1.3132,-1.3107 -2.83293,-2.30256 -4.45397,-2.96954 l 0,-48.75349 c 1.62104,-0.66268 3.13882,-1.6485 4.45397,-2.96954 4.02727,-4.02086 4.99561,-9.93063 2.93228,-14.87526 L 77.0076,7.04018 130.16876,60.19714 c 4.46762,4.46981 4.46762,11.71183 0,16.17734 l -77.53129,77.52768 c -4.46371,4.46551 -11.70384,4.46551 -16.17339,0 L -40.70456,76.73469 c -4.46567,-4.46724 -4.46567,-11.71356 0,-16.17907"
       style="fill:#ebd63e;fill-opacity:1;fill-rule:nonzero;stroke:#000000;stroke-width:1.07716823;stroke-miterlimit:4;stroke-dasharray:none"
       id="path3480" />
    <g
       style="fill:#000000;stroke:none"
       transform="matrix(0.00715638,-0.00715638,-0.00715638,-0.00715638,62.5591,143.19855)"
       id="g3484">
      <path
         inkscape:connector-curvature="0"
         d="m 7840,5740 c -378,-30 -695,-166 -931,-400 -243,-241 -359,-535 -359,-908 0,-558 229,-948 740,-1257 130,-78 307,-163 613,-295 417,-179 572,-264 671,-370 122,-131 156,-340 79,-500 -15,-31 -54,-83 -89,-118 -118,-119 -304,-182 -535,-182 -390,0 -681,160 -915,506 -32,46 -61,84 -65,84 -9,0 -770,-439 -786,-454 -10,-9 -2,-30 37,-94 304,-512 779,-812 1421,-898 168,-23 483,-22 644,0 404,57 707,191 942,419 250,241 373,553 373,944 0,250 -41,445 -134,638 -64,132 -128,221 -238,333 -211,214 -484,376 -1029,610 -412,177 -550,253 -641,350 -87,93 -124,202 -116,338 7,108 37,181 103,252 95,103 205,146 375,145 193,0 318,-50 445,-178 45,-44 103,-115 130,-158 31,-49 54,-76 62,-73 26,11 753,481 753,488 0,4 -37,62 -82,130 -96,144 -269,324 -388,403 -220,146 -455,221 -765,244 -152,12 -172,12 -315,1 z"
         id="path3486" />
      <path
         inkscape:connector-curvature="0"
         d="m 4727,3923 -3,-1768 -22,-83 c -29,-109 -63,-174 -123,-234 -84,-84 -192,-119 -372,-120 -257,-1 -411,108 -590,414 -29,48 -55,87 -58,86 -4,-2 -185,-111 -402,-242 l -395,-240 30,-60 c 179,-357 489,-627 862,-751 394,-131 900,-119 1271,30 445,180 706,552 775,1105 6,56 10,681 10,1857 l 0,1773 -490,0 -489,0 -4,-1767 z"
         id="path3488" />
    </g>
  </g>
  <g
     transform="matrix(0.70710678,0.70710678,-0.70710678,0.70710678,264.94342,9.5243742)"
     id="g3511">
    <path
       id="path3513"
       style="fill:#ebd63e;fill-opacity:1;fill-rule:nonzero;stroke:#000000;stroke-width:1.07716823;stroke-miterlimit:4;stroke-dasharray:none"
       d="m -40.7049,60.55562 77.53131,-77.52509 c 4.46176,-4.46637 11.70384,-4.46637 16.17144,0 L 69.09719,-0.87055 48.67443,19.55256 C 43.92821,17.94887 38.48642,19.02432 34.70269,22.8082 30.90143,26.61534 29.83373,32.10373 31.4762,36.86567 L 11.79381,56.54769 C 7.032,54.90695 1.5376,55.96947 -2.2656,59.77833 c -5.31515,5.31346 -5.31515,13.92477 0,19.24168 5.31709,5.31776 13.92886,5.31776 19.2479,0 3.99805,-4.0019 4.98588,-9.87376 2.96152,-14.79943 l 18.35555,-18.35581 0.002,48.30367 c -1.29566,0.64371 -2.51924,1.49855 -3.59863,2.574 -5.31515,5.31345 -5.31515,13.92477 0,19.24598 5.31709,5.31518 13.93276,5.31518 19.24206,0 5.31514,-5.32121 5.31514,-13.93253 0,-19.24598 -1.3132,-1.3107 -2.83293,-2.30256 -4.45397,-2.96954 l 0,-48.75349 c 1.62104,-0.66268 3.13882,-1.6485 4.45397,-2.96954 4.02727,-4.02086 4.99561,-9.93063 2.93228,-14.87526 L 77.0076,7.04018 130.16876,60.19714 c 4.46762,4.46981 4.46762,11.71183 0,16.17734 l -77.53129,77.52768 c -4.46371,4.46551 -11.70384,4.46551 -16.17339,0 L -40.70456,76.73469 c -4.46567,-4.46724 -4.46567,-11.71356 0,-16.17907"
       inkscape:connector-curvature="0" />
    <g
       id="g3515"
       transform="matrix(0.00715638,-0.00715638,-0.00715638,-0.00715638,62.5591,143.19855)"
       style="fill:#000000;stroke:none">
      <path
         id="path3517"
         d="m 7840,5740 c -378,-30 -695,-166 -931,-400 -243,-241 -359,-535 -359,-908 0,-558 229,-948 740,-1257 130,-78 307,-163 613,-295 417,-179 572,-264 671,-370 122,-131 156,-340 79,-500 -15,-31 -54,-83 -89,-118 -118,-119 -304,-182 -535,-182 -390,0 -681,160 -915,506 -32,46 -61,84 -65,84 -9,0 -770,-439 -786,-454 -10,-9 -2,-30 37,-94 304,-512 779,-812 1421,-898 168,-23 483,-22 644,0 404,57 707,191 942,419 250,241 373,553 373,944 0,250 -41,445 -134,638 -64,132 -128,221 -238,333 -211,214 -484,376 -1029,610 -412,177 -550,253 -641,350 -87,93 -124,202 -116,338 7,108 37,181 103,252 95,103 205,146 375,145 193,0 318,-50 445,-178 45,-44 103,-115 130,-158 31,-49 54,-76 62,-73 26,11 753,481 753,488 0,4 -37,62 -82,130 -96,144 -269,324 -388,403 -220,146 -455,221 -765,244 -152,12 -172,12 -315,1 z"
         inkscape:connector-curvature="0" />
      <path
         id="path3519"
         d="m 4727,3923 -3,-1768 -22,-83 c -29,-109 -63,-174 -123,-234 -84,-84 -192,-119 -372,-120 -257,-1 -411,108 -590,414 -29,48 -55,87 -58,86 -4,-2 -185,-111 -402,-242 l -395,-240 30,-60 c 179,-357 489,-627 862,-751 394,-131 900,-119 1271,30 445,180 706,552 775,1105 6,56 10,681 10,1857 l 0,1773 -490,0 -489,0 -4,-1767 z"
         inkscape:connector-curvature="0" />
    </g>
  </g>
  <g
     transform="matrix(0.70710678,0.70710678,-0.70710678,0.70710678,108.94342,167.52444)"
     id="g3521">
    <path
       id="path3523"
       style="fill:#ebd63e;fill-opacity:1;fill-rule:nonzero;stroke:#000000;stroke-width:1.07716823;stroke-miterlimit:4;stroke-dasharray:none"
       d="m -40.7049,60.55562 77.53131,-77.52509 c 4.46176,-4.46637 11.70384,-4.46637 16.17144,0 L 69.09719,-0.87055 48.67443,19.55256 C 43.92821,17.94887 38.48642,19.02432 34.70269,22.8082 30.90143,26.61534 29.83373,32.10373 31.4762,36.86567 L 11.79381,56.54769 C 7.032,54.90695 1.5376,55.96947 -2.2656,59.77833 c -5.31515,5.31346 -5.31515,13.92477 0,19.24168 5.31709,5.31776 13.92886,5.31776 19.2479,0 3.99805,-4.0019 4.98588,-9.87376 2.96152,-14.79943 l 18.35555,-18.35581 0.002,48.30367 c -1.29566,0.64371 -2.51924,1.49855 -3.59863,2.574 -5.31515,5.31345 -5.31515,13.92477 0,19.24598 5.31709,5.31518 13.93276,5.31518 19.24206,0 5.31514,-5.32121 5.31514,-13.93253 0,-19.24598 -1.3132,-1.3107 -2.83293,-2.30256 -4.45397,-2.96954 l 0,-48.75349 c 1.62104,-0.66268 3.13882,-1.6485 4.45397,-2.96954 4.02727,-4.02086 4.99561,-9.93063 2.93228,-14.87526 L 77.0076,7.04018 130.16876,60.19714 c 4.46762,4.46981 4.46762,11.71183 0,16.17734 l -77.53129,77.52768 c -4.46371,4.46551 -11.70384,4.46551 -16.17339,0 L -40.70456,76.73469 c -4.46567,-4.46724 -4.46567,-11.71356 0,-16.17907"
       inkscape:connector-curvature="0" />
    <g
       id="g3525"
       transform="matrix(0.00715638,-0.00715638,-0.00715638,-0.00715638,62.5591,143.19855)"
       style="fill:#000000;stroke:none">
      <path
         id="path3527"
         d="m 7840,5740 c -378,-30 -695,-166 -931,-400 -243,-241 -359,-535 -359,-908 0,-558 229,-948 740,-1257 130,-78 307,-163 613,-295 417,-179 572,-264 671,-370 122,-131 156,-340 79,-500 -15,-31 -54,-83 -89,-118 -118,-119 -304,-182 -535,-182 -390,0 -681,160 -915,506 -32,46 -61,84 -65,84 -9,0 -770,-439 -786,-454 -10,-9 -2,-30 37,-94 304,-512 779,-812 1421,-898 168,-23 483,-22 644,0 404,57 707,191 942,419 250,241 373,553 373,944 0,250 -41,445 -134,638 -64,132 -128,221 -238,333 -211,214 -484,376 -1029,610 -412,177 -550,253 -641,350 -87,93 -124,202 -116,338 7,108 37,181 103,252 95,103 205,146 375,145 193,0 318,-50 445,-178 45,-44 103,-115 130,-158 31,-49 54,-76 62,-73 26,11 753,481 753,488 0,4 -37,62 -82,130 -96,144 -269,324 -388,403 -220,146 -455,221 -765,244 -152,12 -172,12 -315,1 z"
         inkscape:connector-curvature="0" />
      <path
         id="path3529"
         d="m 4727,3923 -3,-1768 -22,-83 c -29,-109 -63,-174 -123,-234 -84,-84 -192,-119 -372,-120 -257,-1 -411,108 -590,414 -29,48 -55,87 -58,86 -4,-2 -185,-111 -402,-242 l -395,-240 30,-60 c 179,-357 489,-627 862,-751 394,-131 900,-119 1271,30 445,180 706,552 775,1105 6,56 10,681 10,1857 l 0,1773 -490,0 -489,0 -4,-1767 z"
         inkscape:connector-curvature="0" />
    </g>
  </g>
  <g
     id="g3531"
     transform="matrix(0.70710678,0.70710678,-0.70710678,0.70710678,264.94342,167.52444)">
    <path
       inkscape:connector-curvature="0"
       d="m -40.7049,60.55562 77.53131,-77.52509 c 4.46176,-4.46637 11.70384,-4.46637 16.17144,0 L 69.09719,-0.87055 48.67443,19.55256 C 43.92821,17.94887 38.48642,19.02432 34.70269,22.8082 30.90143,26.61534 29.83373,32.10373 31.4762,36.86567 L 11.79381,56.54769 C 7.032,54.90695 1.5376,55.96947 -2.2656,59.77833 c -5.31515,5.31346 -5.31515,13.92477 0,19.24168 5.31709,5.31776 13.92886,5.31776 19.2479,0 3.99805,-4.0019 4.98588,-9.87376 2.96152,-14.79943 l 18.35555,-18.35581 0.002,48.30367 c -1.29566,0.64371 -2.51924,1.49855 -3.59863,2.574 -5.31515,5.31345 -5.31515,13.92477 0,19.24598 5.31709,5.31518 13.93276,5.31518 19.24206,0 5.31514,-5.32121 5.31514,-13.93253 0,-19.24598 -1.3132,-1.3107 -2.83293,-2.30256 -4.45397,-2.96954 l 0,-48.75349 c 1.62104,-0.66268 3.13882,-1.6485 4.45397,-2.96954 4.02727,-4.02086 4.99561,-9.93063 2.93228,-14.87526 L 77.0076,7.04018 130.16876,60.19714 c 4.46762,4.46981 4.46762,11.71183 0,16.17734 l -77.53129,77.52768 c -4.46371,4.46551 -11.70384,4.46551 -16.17339,0 L -40.70456,76.73469 c -4.46567,-4.46724 -4.46567,-11.71356 0,-16.17907"
       style="fill:#ebd63e;fill-opacity:1;fill-rule:nonzero;stroke:#000000;stroke-width:1.07716823;stroke-miterlimit:4;stroke-dasharray:none"
       id="path3533" />
    <g
       style="fill:#000000;stroke:none"
       transform="matrix(0.00715638,-0.00715638,-0.00715638,-0.00715638,62.5591,143.19855)"
       id="g3535">
      <path
         inkscape:connector-curvature="0"
         d="m 7840,5740 c -378,-30 -695,-166 -931,-400 -243,-241 -359,-535 -359,-908 0,-558 229,-948 740,-1257 130,-78 307,-163 613,-295 417,-179 572,-264 671,-370 122,-131 156,-340 79,-500 -15,-31 -54,-83 -89,-118 -118,-119 -304,-182 -535,-182 -390,0 -681,160 -915,506 -32,46 -61,84 -65,84 -9,0 -770,-439 -786,-454 -10,-9 -2,-30 37,-94 304,-512 779,-812 1421,-898 168,-23 483,-22 644,0 404,57 707,191 942,419 250,241 373,553 373,944 0,250 -41,445 -134,638 -64,132 -128,221 -238,333 -211,214 -484,376 -1029,610 -412,177 -550,253 -641,350 -87,93 -124,202 -116,338 7,108 37,181 103,252 95,103 205,146 375,145 193,0 318,-50 445,-178 45,-44 103,-115 130,-158 31,-49 54,-76 62,-73 26,11 753,481 753,488 0,4 -37,62 -82,130 -96,144 -269,324 -388,403 -220,146 -455,221 -765,244 -152,12 -172,12 -315,1 z"
         id="path3537" />
      <path
         inkscape:connector-curvature="0"
         d="m 4727,3923 -3,-1768 -22,-83 c -29,-109 -63,-174 -123,-234 -84,-84 -192,-119 -372,-120 -257,-1 -411,108 -590,414 -29,48 -55,87 -58,86 -4,-2 -185,-111 -402,-242 l -395,-240 30,-60 c 179,-357 489,-627 862,-751 394,-131 900,-119 1271,30 445,180 706,552 775,1105 6,56 10,681 10,1857 l 0,1773 -490,0 -489,0 -4,-1767 z"
         id="path3539" />
    </g>
  </g>
  <g
     transform="matrix(0.70710678,0.70710678,-0.70710678,0.70710678,108.94342,325.52444)"
     id="g3541">
    <path
       id="path3543"
       style="fill:#ebd63e;fill-opacity:1;fill-rule:nonzero;stroke:#000000;stroke-width:1.07716823;stroke-miterlimit:4;stroke-dasharray:none"
       d="m -40.7049,60.55562 77.53131,-77.52509 c 4.46176,-4.46637 11.70384,-4.46637 16.17144,0 L 69.09719,-0.87055 48.67443,19.55256 C 43.92821,17.94887 38.48642,19.02432 34.70269,22.8082 30.90143,26.61534 29.83373,32.10373 31.4762,36.86567 L 11.79381,56.54769 C 7.032,54.90695 1.5376,55.96947 -2.2656,59.77833 c -5.31515,5.31346 -5.31515,13.92477 0,19.24168 5.31709,5.31776 13.92886,5.31776 19.2479,0 3.99805,-4.0019 4.98588,-9.87376 2.96152,-14.79943 l 18.35555,-18.35581 0.002,48.30367 c -1.29566,0.64371 -2.51924,1.49855 -3.59863,2.574 -5.31515,5.31345 -5.31515,13.92477 0,19.24598 5.31709,5.31518 13.93276,5.31518 19.24206,0 5.31514,-5.32121 5.31514,-13.93253 0,-19.24598 -1.3132,-1.3107 -2.83293,-2.30256 -4.45397,-2.96954 l 0,-48.75349 c 1.62104,-0.66268 3.13882,-1.6485 4.45397,-2.96954 4.02727,-4.02086 4.99561,-9.93063 2.93228,-14.87526 L 77.0076,7.04018 130.16876,60.19714 c 4.46762,4.46981 4.46762,11.71183 0,16.17734 l -77.53129,77.52768 c -4.46371,4.46551 -11.70384,4.46551 -16.17339,0 L -40.70456,76.73469 c -4.46567,-4.46724 -4.46567,-11.71356 0,-16.17907"
       inkscape:connector-curvature="0" />
    <g
       id="g3545"
       transform="matrix(0.00715638,-0.00715638,-0.00715638,-0.00715638,62.5591,143.19855)"
       style="fill:#000000;stroke:none">
      <path
         id="path3547"
         d="m 7840,5740 c -378,-30 -695,-166 -931,-400 -243,-241 -359,-535 -359,-908 0,-558 229,-948 740,-1257 130,-78 307,-163 613,-295 417,-179 572,-264 671,-370 122,-131 156,-340 79,-500 -15,-31 -54,-83 -89,-118 -118,-119 -304,-182 -535,-182 -390,0 -681,160 -915,506 -32,46 -61,84 -65,84 -9,0 -770,-439 -786,-454 -10,-9 -2,-30 37,-94 304,-512 779,-812 1421,-898 168,-23 483,-22 644,0 404,57 707,191 942,419 250,241 373,553 373,944 0,250 -41,445 -134,638 -64,132 -128,221 -238,333 -211,214 -484,376 -1029,610 -412,177 -550,253 -641,350 -87,93 -124,202 -116,338 7,108 37,181 103,252 95,103 205,146 375,145 193,0 318,-50 445,-178 45,-44 103,-115 130,-158 31,-49 54,-76 62,-73 26,11 753,481 753,488 0,4 -37,62 -82,130 -96,144 -269,324 -388,403 -220,146 -455,221 -765,244 -152,12 -172,12 -315,1 z"
         inkscape:connector-curvature="0" />
      <path
         id="path3549"
         d="m 4727,3923 -3,-1768 -22,-83 c -29,-109 -63,-174 -123,-234 -84,-84 -192,-119 -372,-120 -257,-1 -411,108 -590,414 -29,48 -55,87 -58,86 -4,-2 -185,-111 -402,-242 l -395,-240 30,-60 c 179,-357 489,-627 862,-751 394,-131 900,-119 1271,30 445,180 706,552 775,1105 6,56 10,681 10,1857 l 0,1773 -490,0 -489,0 -4,-1767 z"
         inkscape:connector-curvature="0" />
    </g>
  </g>
  <g
     id="g3551"
     transform="matrix(0.70710678,0.70710678,-0.70710678,0.70710678,264.94342,325.52444)">
    <path
       inkscape:connector-curvature="0"
       d="m -40.7049,60.55562 77.53131,-77.52509 c 4.46176,-4.46637 11.70384,-4.46637 16.17144,0 L 69.09719,-0.87055 48.67443,19.55256 C 43.92821,17.94887 38.48642,19.02432 34.70269,22.8082 30.90143,26.61534 29.83373,32.10373 31.4762,36.86567 L 11.79381,56.54769 C 7.032,54.90695 1.5376,55.96947 -2.2656,59.77833 c -5.31515,5.31346 -5.31515,13.92477 0,19.24168 5.31709,5.31776 13.92886,5.31776 19.2479,0 3.99805,-4.0019 4.98588,-9.87376 2.96152,-14.79943 l 18.35555,-18.35581 0.002,48.30367 c -1.29566,0.64371 -2.51924,1.49855 -3.59863,2.574 -5.31515,5.31345 -5.31515,13.92477 0,19.24598 5.31709,5.31518 13.93276,5.31518 19.24206,0 5.31514,-5.32121 5.31514,-13.93253 0,-19.24598 -1.3132,-1.3107 -2.83293,-2.30256 -4.45397,-2.96954 l 0,-48.75349 c 1.62104,-0.66268 3.13882,-1.6485 4.45397,-2.96954 4.02727,-4.02086 4.99561,-9.93063 2.93228,-14.87526 L 77.0076,7.04018 130.16876,60.19714 c 4.46762,4.46981 4.46762,11.71183 0,16.17734 l -77.53129,77.52768 c -4.46371,4.46551 -11.70384,4.46551 -16.17339,0 L -40.70456,76.73469 c -4.46567,-4.46724 -4.46567,-11.71356 0,-16.17907"
       style="fill:#ebd63e;fill-opacity:1;fill-rule:nonzero;stroke:#000000;stroke-width:1.07716823;stroke-miterlimit:4;stroke-dasharray:none"
       id="path3553" />
    <g
       style="fill:#000000;stroke:none"
       transform="matrix(0.00715638,-0.00715638,-0.00715638,-0.00715638,62.5591,143.19855)"
       id="g3555">
      <path
         inkscape:connector-curvature="0"
         d="m 7840,5740 c -378,-30 -695,-166 -931,-400 -243,-241 -359,-535 -359,-908 0,-558 229,-948 740,-1257 130,-78 307,-163 613,-295 417,-179 572,-264 671,-370 122,-131 156,-340 79,-500 -15,-31 -54,-83 -89,-118 -118,-119 -304,-182 -535,-182 -390,0 -681,160 -915,506 -32,46 -61,84 -65,84 -9,0 -770,-439 -786,-454 -10,-9 -2,-30 37,-94 304,-512 779,-812 1421,-898 168,-23 483,-22 644,0 404,57 707,191 942,419 250,241 373,553 373,944 0,250 -41,445 -134,638 -64,132 -128,221 -238,333 -211,214 -484,376 -1029,610 -412,177 -550,253 -641,350 -87,93 -124,202 -116,338 7,108 37,181 103,252 95,103 205,146 375,145 193,0 318,-50 445,-178 45,-44 103,-115 130,-158 31,-49 54,-76 62,-73 26,11 753,481 753,488 0,4 -37,62 -82,130 -96,144 -269,324 -388,403 -220,146 -455,221 -765,244 -152,12 -172,12 -315,1 z"
         id="path3557" />
      <path
         inkscape:connector-curvature="0"
         d="m 4727,3923 -3,-1768 -22,-83 c -29,-109 -63,-174 -123,-234 -84,-84 -192,-119 -372,-120 -257,-1 -411,108 -590,414 -29,48 -55,87 -58,86 -4,-2 -185,-111 -402,-242 l -395,-240 30,-60 c 179,-357 489,-627 862,-751 394,-131 900,-119 1271,30 445,180 706,552 775,1105 6,56 10,681 10,1857 l 0,1773 -490,0 -489,0 -4,-1767 z"
         id="path3559" />
    </g>
  </g>
</svg>
